<svg width="100" height="100" viewBox="0 0 100 100" fill="none" xmlns="http://www.w3.org/2000/svg">
<path d="M43.6692 30.841C43.5783 30.5681 43.4137 30.3257 43.1937 30.1404C42.9737 29.9552 42.7068 29.8343 42.4225 29.7912L38.9084 29.2563L37.3231 25.8955C37.1966 25.6277 36.9967 25.4013 36.7465 25.2427C36.4963 25.0842 36.2063 25 35.9101 25C35.6139 25 35.3238 25.0842 35.0736 25.2427C34.8235 25.4013 34.6235 25.6277 34.4971 25.8955L32.9117 29.2563L29.3977 29.7912C29.1134 29.8346 28.8466 29.9556 28.6267 30.1408C28.4068 30.3261 28.2422 30.5684 28.1512 30.8412C28.0602 31.1139 28.0462 31.4065 28.1107 31.6867C28.1753 31.9669 28.316 32.2239 28.5172 32.4293L31.102 35.0676L30.4887 38.809C30.4413 39.0983 30.4762 39.3952 30.5895 39.6656C30.7028 39.936 30.8899 40.1691 31.1295 40.3382C31.369 40.5073 31.6513 40.6056 31.944 40.6218C32.2368 40.6381 32.5282 40.5716 32.785 40.4301L35.91 38.7098L39.0365 40.4301C39.2933 40.5717 39.5848 40.6382 39.8775 40.622C40.1703 40.6058 40.4526 40.5075 40.6922 40.3384C40.9318 40.1693 41.1189 39.9362 41.2322 39.6657C41.3455 39.3952 41.3805 39.0984 41.333 38.809L40.7182 35.0668L43.3029 32.4301C43.5044 32.2246 43.6452 31.9675 43.7098 31.6871C43.7744 31.4067 43.7603 31.1139 43.6692 30.841ZM37.9334 33.4455C37.7615 33.6206 37.6333 33.8336 37.559 34.0674C37.4848 34.3013 37.4666 34.5493 37.5061 34.7914L37.7289 36.1434L36.6639 35.5574C36.433 35.4303 36.1737 35.3636 35.9101 35.3636C35.6465 35.3636 35.3872 35.4303 35.1563 35.5574L34.0928 36.1434L34.3141 34.7914C34.3535 34.5493 34.3354 34.3013 34.2611 34.0674C34.1869 33.8336 34.0586 33.6206 33.8867 33.4455L32.8842 32.4213L34.2057 32.2207C34.459 32.1821 34.699 32.0817 34.9044 31.9284C35.1098 31.7751 35.2744 31.5737 35.3836 31.3418L35.9109 30.2256L36.4383 31.3418C36.5475 31.5737 36.7121 31.7751 36.9175 31.9284C37.1229 32.0817 37.3629 32.1821 37.6162 32.2207L38.936 32.4213L37.9334 33.4455Z" fill="white"/>
<path d="M70.5469 57.9162L67.0334 57.3822L65.448 54.0215C65.3216 53.7536 65.1216 53.5273 64.8715 53.3687C64.6213 53.2102 64.3312 53.126 64.035 53.126C63.7389 53.126 63.4488 53.2102 63.1986 53.3687C62.9484 53.5273 62.7485 53.7536 62.6221 54.0215L61.0367 57.3822L57.5226 57.9172C57.2384 57.9606 56.9716 58.0815 56.7517 58.2668C56.5317 58.452 56.3672 58.6944 56.2762 58.9672C56.1851 59.2399 56.1711 59.5325 56.2357 59.8127C56.3003 60.0929 56.4409 60.3499 56.6422 60.5553L59.2269 63.1936L58.6137 66.935C58.5662 67.2243 58.6012 67.5212 58.7145 67.7916C58.8278 68.062 59.0149 68.2951 59.2544 68.4642C59.494 68.6333 59.7762 68.7316 60.069 68.7478C60.3618 68.7641 60.6532 68.6976 60.9099 68.5561L64.0349 66.8357L67.1615 68.5561C67.4183 68.6977 67.7097 68.7642 68.0025 68.748C68.2953 68.7317 68.5776 68.6335 68.8172 68.4643C69.0567 68.2952 69.2439 68.0621 69.3572 67.7917C69.4705 67.5212 69.5054 67.2243 69.458 66.935L68.8431 63.1928L71.4279 60.5561C71.6291 60.3507 71.7698 60.0937 71.8344 59.8135C71.8989 59.5333 71.8849 59.2407 71.7939 58.9679C71.7029 58.6952 71.5383 58.4528 71.3184 58.2676C71.0985 58.0823 70.8317 57.9613 70.5474 57.918L70.5469 57.9162ZM66.0578 61.5705C65.8859 61.7456 65.7576 61.9586 65.6834 62.1924C65.6092 62.4263 65.591 62.6743 65.6305 62.9164L65.8533 64.2684L64.7883 63.6824C64.5574 63.5553 64.2981 63.4886 64.0345 63.4886C63.7709 63.4886 63.5115 63.5553 63.2806 63.6824L62.2172 64.2684L62.4385 62.9164C62.4779 62.6743 62.4597 62.4263 62.3855 62.1924C62.3113 61.9586 62.183 61.7456 62.0111 61.5705L61.0092 60.5463L62.3306 60.3457C62.584 60.3071 62.824 60.2067 63.0294 60.0534C63.2348 59.9001 63.3994 59.6987 63.5086 59.4668L64.0349 58.3506L64.5623 59.4668C64.6715 59.6987 64.836 59.9001 65.0415 60.0534C65.2469 60.2067 65.4868 60.3071 65.7402 60.3457L67.0609 60.5463L66.0578 61.5705Z" fill="white"/>
<path d="M95.1461 22.7733C95.0538 22.5899 94.9262 22.4265 94.7707 22.2924C94.6152 22.1583 94.4349 22.0562 94.2399 21.9918C94.0449 21.9274 93.8392 21.9021 93.6344 21.9172C93.4297 21.9323 93.2299 21.9876 93.0465 22.08C92.8631 22.1723 92.6997 22.2998 92.5656 22.4553C92.4315 22.6108 92.3294 22.7912 92.265 22.9862C92.2006 23.1811 92.1752 23.3869 92.1904 23.5916C92.2055 23.7964 92.2608 23.9962 92.3531 24.1796C93.9935 27.4262 94.9742 30.9657 95.2388 34.5936C95.5034 38.2215 95.0465 41.8658 93.8945 45.3161H51.5625V15.7567C56.6044 11.4225 63.0959 9.1499 69.7402 9.39284C76.6557 9.64675 83.1115 12.6315 87.9182 17.7997C88.058 17.95 88.226 18.0712 88.4126 18.1566C88.5993 18.2419 88.8009 18.2897 89.006 18.2971C89.2111 18.3045 89.4157 18.2714 89.608 18.1998C89.8004 18.1282 89.9767 18.0193 90.127 17.8796C90.2772 17.7398 90.3985 17.5718 90.4839 17.3851C90.5692 17.1985 90.6169 16.9968 90.6244 16.7917C90.6318 16.5866 90.5987 16.382 90.5271 16.1897C90.4555 15.9974 90.3466 15.821 90.2068 15.6708C84.8313 9.89265 77.6031 6.55319 69.8531 6.2694C62.6408 6.00158 55.5795 8.38085 50 12.9589C44.417 8.38703 37.3582 6.00858 30.1469 6.2694C14.3844 6.84694 1.5625 20.4639 1.5625 36.6245C1.54646 44.6104 4.64536 52.2878 10.2006 58.0249L23.0941 71.3969C23.2366 71.5446 23.4068 71.6628 23.5949 71.7447C23.783 71.8267 23.9855 71.8707 24.1906 71.8744C24.3958 71.8781 24.5997 71.8413 24.7907 71.7662C24.9816 71.6911 25.1559 71.5792 25.3036 71.4367C25.4513 71.2942 25.5695 71.1241 25.6514 70.9359C25.7333 70.7478 25.7774 70.5454 25.7811 70.3402C25.7848 70.135 25.748 69.9311 25.6729 69.7402C25.5978 69.5492 25.4858 69.3749 25.3434 69.2272L12.4496 55.8551C10.3589 53.6776 8.63839 51.1729 7.35606 48.4401H23.4375C23.8519 48.4401 24.2493 48.2755 24.5424 47.9825C24.8354 47.6894 25 47.292 25 46.8776C25 46.4632 24.8354 46.0658 24.5424 45.7728C24.2493 45.4797 23.8519 45.3151 23.4375 45.3151H6.10469C5.17191 42.5123 4.69347 39.5784 4.6875 36.6245C4.6875 22.1249 16.159 9.90866 30.2598 9.39284C36.9045 9.14734 43.3968 11.4202 48.4375 15.7565V45.3151H29.6875C29.2731 45.3151 28.8757 45.4797 28.5826 45.7728C28.2896 46.0658 28.125 46.4632 28.125 46.8776C28.125 47.292 28.2896 47.6894 28.5826 47.9825C28.8757 48.2755 29.2731 48.4401 29.6875 48.4401H48.4375V90.4819C46.4374 90.1476 44.5965 89.1827 43.1836 87.728L29.8633 73.9151C29.7208 73.7674 29.5507 73.6493 29.3625 73.5674C29.1744 73.4854 28.972 73.4414 28.7668 73.4377C28.5616 73.434 28.3578 73.4708 28.1668 73.5459C27.9759 73.621 27.8016 73.733 27.6539 73.8755C27.5062 74.0179 27.3881 74.1881 27.3062 74.3762C27.2242 74.5644 27.1802 74.7668 27.1765 74.9719C27.1728 75.1771 27.2096 75.381 27.2847 75.5719C27.3598 75.7629 27.4718 75.9372 27.6143 76.0848L40.9346 89.8971C42.1092 91.1155 43.5173 92.0846 45.0749 92.7465C46.6325 93.4083 48.3074 93.7495 49.9998 93.7495C51.6922 93.7495 53.3672 93.4083 54.9247 92.7465C56.4823 92.0846 57.8904 91.1155 59.065 89.8971L89.7994 58.0249C94.2344 53.4279 97.1312 47.5663 98.0891 41.2509C99.0469 34.9356 98.0185 28.4786 95.1461 22.7733ZM87.5504 55.8551L56.8164 87.7284C55.4034 89.1829 53.5626 90.1478 51.5625 90.4823V48.4401H92.644C91.3616 51.1729 89.6411 53.6776 87.5504 55.8551Z" fill="white"/>
</svg>
