<svg width="100" height="100" viewBox="0 0 100 100" fill="none" xmlns="http://www.w3.org/2000/svg">
<path d="M78.0734 32.2498C77.3594 31.3561 76.5937 30.4873 75.7969 29.667L73.5547 31.842C74.2813 32.592 74.9812 33.3857 75.6328 34.2014L78.0734 32.2498Z" fill="white"/>
<path d="M79.0719 39.4574L81.839 38.0059C81.3047 36.9887 80.7172 35.9887 80.0937 35.0371L77.4797 36.7559C78.0484 37.6184 78.5844 38.5293 79.0719 39.4574Z" fill="white"/>
<path d="M73.2812 27.3125C72.4094 26.5719 71.4937 25.8641 70.5578 25.2109L68.7687 27.7703C69.6219 28.3688 70.4594 29.0203 71.2562 29.6937L73.2812 27.3125Z" fill="white"/>
<path d="M82.6563 51.4373L85.7672 51.1248C85.6547 49.9795 85.4859 48.8326 85.2656 47.7139L82.2 48.3186C82.3969 49.3451 82.5516 50.392 82.6563 51.4373Z" fill="white"/>
<path d="M81.4422 45.2746L84.4359 44.3777C84.1094 43.284 83.7234 42.1902 83.2922 41.1309L80.3969 42.309C80.7922 43.2809 81.1438 44.2746 81.4422 45.2746Z" fill="white"/>
<path d="M82.675 57.7199L85.7859 58.0059C85.8859 56.9121 85.9422 55.7949 85.9422 54.5684L82.8125 54.6871C82.8125 55.6996 82.7656 56.7184 82.675 57.7199Z" fill="white"/>
<path d="M42.3438 89.8066C43.3453 90.0238 44.3672 90.2004 45.3828 90.3301L45.7781 87.2316C44.8531 87.1113 43.9203 86.9504 43.0078 86.752L42.3438 89.8066Z" fill="white"/>
<path d="M48.5781 87.4684L48.4422 90.5934C48.9599 90.6142 49.4792 90.6246 50 90.6246C50.5109 90.6246 51.0188 90.6137 51.5266 90.5918L51.3938 87.4668C50.4578 87.5105 49.5109 87.509 48.5781 87.4684Z" fill="white"/>
<path d="M36.4531 87.9842C37.4063 88.3717 38.3828 88.7217 39.3562 89.0217L40.2781 86.0357C39.3922 85.7623 38.5016 85.4436 37.6312 85.0889L36.4531 87.9842Z" fill="white"/>
<path d="M59.6875 86.0449L60.6078 89.0309C61.5859 88.7293 62.5625 88.3793 63.5125 87.9934L62.3438 85.0996C61.4766 85.4512 60.5844 85.7699 59.6875 86.0449Z" fill="white"/>
<path d="M54.2 87.2324L54.5953 90.3324C55.6094 90.2027 56.6266 90.0199 57.6344 89.8105L56.9735 86.7559C56.0578 86.9543 55.125 87.1152 54.2 87.2324Z" fill="white"/>
<path d="M17.3234 57.6844C17.2328 56.6953 17.1875 55.6859 17.1875 54.6875V54.5312L14.0625 54.6875C14.0625 55.7812 14.1125 56.8828 14.2188 57.9687L17.3234 57.6844Z" fill="white"/>
<path d="M19.6125 42.2844L16.7187 41.1016C16.2875 42.1578 15.9016 43.25 15.5719 44.3469L18.5656 45.2453C18.8656 44.2438 19.2187 43.2484 19.6125 42.2844Z" fill="white"/>
<path d="M31.25 27.7598L29.4625 25.1973C28.525 25.8535 27.6047 26.5613 26.7359 27.3004L28.75 29.6879C29.55 29.0051 30.3859 28.3582 31.25 27.7598Z" fill="white"/>
<path d="M17.8125 48.2938L14.7438 47.6875C14.5219 48.8094 14.3531 49.9563 14.2391 51.0938L17.35 51.4063C17.4516 50.3641 17.6078 49.3172 17.8125 48.2938Z" fill="white"/>
<path d="M22.5328 36.7285L19.9203 35.0098C19.2953 35.9676 18.7047 36.966 18.1734 37.9785L20.9391 39.4332C21.425 38.5145 21.9609 37.6035 22.5328 36.7285Z" fill="white"/>
<path d="M26.4594 31.8295L24.2187 29.6514C23.4234 30.4686 22.6562 31.3373 21.9406 32.2295L24.3781 34.1857C25.0344 33.3686 25.7344 32.5764 26.4594 31.8295Z" fill="white"/>
<path d="M81.25 60.9372C78.8476 60.9385 76.4725 61.4453 74.2788 62.4246C72.0851 63.404 70.122 64.8339 68.5172 66.6216L58.325 58.9779C59.0042 57.6688 59.364 56.2177 59.3751 54.743C59.3861 53.2683 59.0481 51.812 58.3886 50.4929C57.7291 49.1739 56.7668 48.0296 55.5804 47.1537C54.394 46.2777 53.0172 45.6949 51.5625 45.4529V38.9825C55.9672 38.5804 60.0473 36.4958 62.9542 33.1621C65.8611 29.8285 67.3709 25.5026 67.1697 21.0842C66.9684 16.6657 65.0716 12.4949 61.8737 9.43939C58.6758 6.38383 54.423 4.67871 50 4.67871C45.577 4.67871 41.3242 6.38383 38.1263 9.43939C34.9284 12.4949 33.0316 16.6657 32.8303 21.0842C32.629 25.5026 34.1389 29.8285 37.0458 33.1621C39.9527 36.4958 44.0328 38.5804 48.4375 38.9825V45.4529C46.9827 45.6951 45.6059 46.2781 44.4195 47.1543C43.2332 48.0304 42.2709 49.1748 41.6115 50.4939C40.952 51.8131 40.6139 53.2695 40.625 54.7443C40.636 56.2191 40.9958 57.6703 41.675 58.9794L31.4844 66.6216C28.5116 63.3281 24.3835 61.3076 19.9589 60.9804C15.5343 60.6531 11.1539 62.0444 7.72896 64.8647C4.30402 67.6849 2.0983 71.7171 1.57067 76.1223C1.04304 80.5275 2.23413 84.9666 4.89614 88.5159C7.55815 92.0653 11.4861 94.4516 15.8628 95.1786C20.2396 95.9055 24.7281 94.917 28.3945 92.4188C32.061 89.9205 34.6231 86.1048 35.5478 81.7656C36.4726 77.4263 35.6887 72.8976 33.3594 69.1216L43.5516 61.4794C45.2876 63.139 47.5968 64.0652 49.9984 64.0652C52.4001 64.0652 54.7093 63.139 56.4453 61.4794L66.6375 69.1216C64.6485 72.3601 63.7902 76.1671 64.1971 79.9458C64.604 83.7245 66.253 87.2614 68.8859 90.0023C71.5187 92.7431 74.9865 94.533 78.7458 95.0915C82.5051 95.6499 86.3434 94.9453 89.6593 93.0881C92.9751 91.2309 95.5811 88.3261 97.0688 84.8288C98.5566 81.3316 98.8419 77.4395 97.8802 73.7627C96.9185 70.0858 94.7641 66.8319 91.7546 64.511C88.7451 62.19 85.0505 60.9331 81.25 60.9372ZM12.5 90.7029V87.4997C12.5 85.8421 13.1585 84.2524 14.3306 83.0803C15.5027 81.9082 17.0924 81.2497 18.75 81.2497C20.4076 81.2497 21.9973 81.9082 23.1694 83.0803C24.3415 84.2524 25 85.8421 25 87.4997V90.7029C23.061 91.6784 20.9206 92.1865 18.75 92.1865C16.5794 92.1865 14.439 91.6784 12.5 90.7029ZM15.625 74.9997V73.4372C15.625 72.6084 15.9542 71.8136 16.5403 71.2275C17.1263 70.6415 17.9212 70.3122 18.75 70.3122C19.5788 70.3122 20.3737 70.6415 20.9597 71.2275C21.5458 71.8136 21.875 72.6084 21.875 73.4372V74.9997C21.875 75.8285 21.5458 76.6234 20.9597 77.2094C20.3737 77.7955 19.5788 78.1247 18.75 78.1247C17.9212 78.1247 17.1263 77.7955 16.5403 77.2094C15.9542 76.6234 15.625 75.8285 15.625 74.9997ZM28.125 88.5763V87.4997C28.124 85.8224 27.6731 84.1761 26.8192 82.7325C25.9653 81.2888 24.7397 80.1007 23.2703 79.2919C24.3778 78.1371 24.9974 76.5998 25 74.9997V73.4372C25 71.7796 24.3415 70.1899 23.1694 69.0178C21.9973 67.8457 20.4076 67.1872 18.75 67.1872C17.0924 67.1872 15.5027 67.8457 14.3306 69.0178C13.1585 70.1899 12.5 71.7796 12.5 73.4372V74.9997C12.5026 76.5998 13.1222 78.1371 14.2297 79.2919C12.7602 80.1007 11.5347 81.2888 10.6808 82.7325C9.82691 84.1761 9.37597 85.8224 9.375 87.4997V88.5763C7.25222 86.6776 5.75597 84.1791 5.08424 81.4115C4.41251 78.6438 4.59697 75.7374 5.6132 73.0769C6.62943 70.4164 8.42954 68.1271 10.7753 66.512C13.1211 64.897 15.902 64.0322 18.75 64.0322C21.598 64.0322 24.3789 64.897 26.7247 66.512C29.0705 68.1271 30.8706 70.4164 31.8868 73.0769C32.903 75.7374 33.0875 78.6438 32.4158 81.4115C31.744 84.1791 30.2478 86.6776 28.125 88.5763ZM46.875 18.7497V17.1872C46.875 16.3584 47.2042 15.5636 47.7903 14.9775C48.3763 14.3915 49.1712 14.0622 50 14.0622C50.8288 14.0622 51.6237 14.3915 52.2097 14.9775C52.7958 15.5636 53.125 16.3584 53.125 17.1872V18.7497C53.125 19.5785 52.7958 20.3734 52.2097 20.9594C51.6237 21.5455 50.8288 21.8747 50 21.8747C49.1712 21.8747 48.3763 21.5455 47.7903 20.9594C47.2042 20.3734 46.875 19.5785 46.875 18.7497ZM50 24.9997C51.6576 24.9997 53.2473 25.6582 54.4194 26.8303C55.5915 28.0024 56.25 29.5921 56.25 31.2497V34.4529C54.311 35.4284 52.1706 35.9365 50 35.9365C47.8294 35.9365 45.689 35.4284 43.75 34.4529V31.2497C43.75 29.5921 44.4085 28.0024 45.5806 26.8303C46.7527 25.6582 48.3424 24.9997 50 24.9997ZM35.9375 21.8747C35.9325 19.5278 36.515 17.2168 37.6319 15.1527C38.7488 13.0885 40.3645 11.3366 42.3319 10.0569C44.2992 8.77709 46.5556 8.01006 48.8953 7.8257C51.2351 7.64134 53.5837 8.04552 55.7273 9.00138C57.8708 9.95725 59.741 11.4344 61.1673 13.2982C62.5937 15.162 63.531 17.3532 63.8936 19.6719C64.2562 21.9907 64.0327 24.3634 63.2435 26.5737C62.4542 28.784 61.1243 30.7616 59.375 32.3263V31.2497C59.374 29.5724 58.9231 27.9261 58.0692 26.4825C57.2153 25.0388 55.9898 23.8506 54.5203 23.0419C55.6278 21.8871 56.2474 20.3498 56.25 18.7497V17.1872C56.25 15.5296 55.5915 13.9399 54.4194 12.7678C53.2473 11.5957 51.6576 10.9372 50 10.9372C48.3424 10.9372 46.7527 11.5957 45.5806 12.7678C44.4085 13.9399 43.75 15.5296 43.75 17.1872V18.7497C43.7526 20.3498 44.3722 21.8871 45.4797 23.0419C44.0102 23.8506 42.7847 25.0388 41.9308 26.4825C41.0769 27.9261 40.626 29.5724 40.625 31.2497V32.3263C39.1518 31.0125 37.9727 29.4023 37.1649 27.6012C36.3571 25.8001 35.9389 23.8487 35.9375 21.8747ZM50 60.9372C48.7639 60.9372 47.5555 60.5707 46.5277 59.8839C45.4999 59.1972 44.6988 58.221 44.2258 57.079C43.7527 55.937 43.6289 54.6803 43.8701 53.4679C44.1112 52.2555 44.7065 51.1419 45.5806 50.2678C46.4547 49.3937 47.5683 48.7985 48.7807 48.5573C49.9931 48.3162 51.2497 48.4399 52.3918 48.913C53.5338 49.386 54.5099 50.1871 55.1967 51.2149C55.8834 52.2427 56.25 53.4511 56.25 54.6872C56.25 56.3448 55.5915 57.9345 54.4194 59.1066C53.2473 60.2787 51.6576 60.9372 50 60.9372ZM75 90.7029V87.4997C75 85.8421 75.6585 84.2524 76.8306 83.0803C78.0027 81.9082 79.5924 81.2497 81.25 81.2497C82.9076 81.2497 84.4973 81.9082 85.6694 83.0803C86.8415 84.2524 87.5 85.8421 87.5 87.4997V90.7029C85.561 91.6784 83.4206 92.1865 81.25 92.1865C79.0794 92.1865 76.939 91.6784 75 90.7029ZM78.125 74.9997V73.4372C78.125 72.6084 78.4542 71.8136 79.0403 71.2275C79.6263 70.6415 80.4212 70.3122 81.25 70.3122C82.0788 70.3122 82.8737 70.6415 83.4597 71.2275C84.0458 71.8136 84.375 72.6084 84.375 73.4372V74.9997C84.375 75.8285 84.0458 76.6234 83.4597 77.2094C82.8737 77.7955 82.0788 78.1247 81.25 78.1247C80.4212 78.1247 79.6263 77.7955 79.0403 77.2094C78.4542 76.6234 78.125 75.8285 78.125 74.9997ZM90.625 88.5763V87.4997C90.624 85.8224 90.1731 84.1761 89.3192 82.7325C88.4653 81.2888 87.2398 80.1007 85.7703 79.2919C86.8778 78.1371 87.4974 76.5998 87.5 74.9997V73.4372C87.5 71.7796 86.8415 70.1899 85.6694 69.0178C84.4973 67.8457 82.9076 67.1872 81.25 67.1872C79.5924 67.1872 78.0027 67.8457 76.8306 69.0178C75.6585 70.1899 75 71.7796 75 73.4372V74.9997C75.0026 76.5998 75.6222 78.1371 76.7297 79.2919C75.2602 80.1007 74.0347 81.2888 73.1808 82.7325C72.3269 84.1761 71.876 85.8224 71.875 87.4997V88.5763C69.7522 86.6776 68.256 84.1791 67.5842 81.4115C66.9125 78.6438 67.097 75.7374 68.1132 73.0769C69.1294 70.4164 70.9295 68.1271 73.2753 66.512C75.6211 64.897 78.402 64.0322 81.25 64.0322C84.098 64.0322 86.8789 64.897 89.2247 66.512C91.5705 68.1271 93.3706 70.4164 94.3868 73.0769C95.403 75.7374 95.5875 78.6438 94.9158 81.4115C94.244 84.1791 92.7478 86.6776 90.625 88.5763Z" fill="white"/>
</svg>
