<svg width="100" height="100" viewBox="0 0 100 100" fill="none" xmlns="http://www.w3.org/2000/svg">
<path d="M1.8125 91.3594C1.46875 91.8906 1.48438 92.5781 1.85938 93.0938C2.15625 93.5156 2.64062 93.7656 3.14062 93.7656C3.25 93.7656 3.35938 93.7656 3.48438 93.7344L17.8438 90.5469C21.9844 92.6562 26.625 93.7656 31.2813 93.7656C47.4844 93.7656 60.6875 80.7031 60.9375 64.5469C67.9688 66.4531 75.6719 65.7344 82.2031 62.4219L96.5625 65.5937C96.6719 65.625 96.7813 65.625 96.9063 65.625C97.4063 65.625 97.8906 65.375 98.1875 64.9531C98.5469 64.4375 98.5625 63.75 98.2344 63.2187L92.375 53.9531C96.3125 48.8125 98.4688 42.4531 98.4688 35.9219C98.4688 19.5469 85.1562 6.23438 68.7813 6.23438C52.4063 6.23438 39.375 19.2969 39.125 35.4375C36.625 34.75 34 34.3594 31.2813 34.3594C14.875 34.375 1.5625 47.6875 1.5625 64.0625C1.5625 70.5781 3.71875 76.9375 7.67187 82.0937L1.8125 91.3594ZM68.75 9.375C83.3906 9.375 95.3125 21.2969 95.3125 35.9375C95.3125 42.1094 93.1562 48.125 89.2187 52.8594C88.7812 53.375 88.7344 54.125 89.0938 54.6875L93.5469 61.7187L82.2969 59.2344C81.9375 59.1562 81.5469 59.2031 81.2187 59.375C74.9844 62.6875 67.4688 63.3281 60.7813 61.2344C59.7188 49.9687 52.3125 40.5156 42.1875 36.4844C42.1875 36.2969 42.1719 36.1094 42.1719 35.9219C42.1719 21.2813 54.0938 9.35937 68.7344 9.35937L68.75 9.375ZM4.6875 64.0625C4.6875 49.4219 16.6094 37.5 31.25 37.5C45.8906 37.5 57.8125 49.4219 57.8125 64.0625C57.8125 78.7031 45.8906 90.625 31.25 90.625C26.9063 90.625 22.5938 89.5469 18.7656 87.5C18.5313 87.375 18.2812 87.3125 18.0312 87.3125C17.9219 87.3125 17.7969 87.3125 17.6875 87.3437L6.45313 89.8281L10.9063 82.7969C11.2656 82.2187 11.2187 81.4844 10.7969 80.9687C6.85937 76.2187 4.70312 70.2031 4.70312 64.0312L4.6875 64.0625Z" fill="white"/>
<path d="M31.25 78.125C32.5444 78.125 33.5938 77.0757 33.5938 75.7812C33.5938 74.4868 32.5444 73.4375 31.25 73.4375C29.9556 73.4375 28.9062 74.4868 28.9062 75.7812C28.9062 77.0757 29.9556 78.125 31.25 78.125Z" fill="white"/>
<path d="M31.25 51.5625C33.8281 51.5625 35.9375 53.6719 35.9375 56.25C35.9375 58.8281 33.8281 60.9375 31.25 60.9375C30.3906 60.9375 29.6875 61.6406 29.6875 62.5V70.3125H32.8125V63.9063C36.375 63.1875 39.0625 60.0313 39.0625 56.25C39.0625 51.9375 35.5625 48.4375 31.25 48.4375C26.9375 48.4375 23.4375 51.9375 23.4375 56.25H26.5625C26.5625 53.6719 28.6719 51.5625 31.25 51.5625Z" fill="white"/>
<path d="M56.25 25H81.25V28.125H56.25V25Z" fill="white"/>
<path d="M56.25 34.375H81.25V37.5H56.25V34.375Z" fill="white"/>
<path d="M62.5 43.75H81.25V46.875H62.5V43.75Z" fill="white"/>
</svg>
