<svg width="101" height="100" viewBox="0 0 101 100" fill="none" xmlns="http://www.w3.org/2000/svg">
<path d="M75.0504 82.98H72.7776C73.7643 81.2273 74.184 79.1694 73.9442 77.1038L72.1174 61.3804C71.5403 56.4142 68.4499 52.1782 64.0518 50.3257L59.3487 48.3444C58.2561 47.8843 57.5221 46.7138 57.5221 45.438L57.5342 42.6056C60.9086 40.2315 63.12 36.3103 63.12 31.88C63.12 24.6517 57.2395 18.771 50.011 18.771C42.7825 18.771 36.902 24.6517 36.902 31.88C36.902 36.3103 39.1131 40.2315 42.4877 42.6056L42.4999 45.4317C42.4999 46.7136 41.7659 47.8843 40.6733 48.3444L35.9702 50.3257C31.5721 52.1782 28.4817 56.4142 27.9045 61.3804L27.5817 64.1577C27.4885 64.9608 28.0639 65.6878 28.867 65.781C28.9247 65.7876 28.9817 65.7909 29.0379 65.7909C29.7709 65.7909 30.4038 65.2415 30.4905 64.4956L30.8133 61.7183C31.2686 57.7989 33.6799 54.4677 37.1067 53.0241L41.8098 51.0429C44.0077 50.1171 45.428 47.9146 45.428 45.4255L45.4225 44.1585C46.8514 44.6942 48.3971 44.9892 50.011 44.9892C51.6249 44.9892 53.1706 44.6942 54.5995 44.1585L54.594 45.4317C54.594 47.9146 56.0143 50.1173 58.2122 51.0429L62.9153 53.0241C66.3418 54.4677 68.7534 57.7989 69.2086 61.7183L71.0354 77.4417C71.2586 79.3616 70.6729 81.264 69.429 82.661C68.3043 83.9239 66.7913 84.6194 65.1684 84.6194H54.1215C54.7051 83.6776 55.0432 82.5685 55.0432 81.3814C55.0432 80.1942 54.7051 79.0851 54.1215 78.1433H59.076C60.1622 78.1433 61.1711 77.6923 61.9176 76.8733C62.6975 76.0175 63.0823 74.8532 62.9733 73.6792L61.8631 61.7362C61.7883 60.9312 61.0758 60.3382 60.2698 60.414C59.4647 60.4888 58.8725 61.2022 58.9475 62.0073L60.0577 73.9503C60.0907 74.306 59.9799 74.6524 59.7534 74.9009C59.6463 75.0183 59.4163 75.2149 59.0762 75.2149H40.9456C40.6055 75.2149 40.3754 75.0183 40.2684 74.9009C40.0418 74.6524 39.9311 74.306 39.9641 73.9503L41.0743 62.0073C41.1493 61.2021 40.5571 60.4888 39.752 60.414C38.9463 60.3378 38.2334 60.9312 38.1586 61.7362L37.0485 73.6792C36.9395 74.8532 37.3243 76.0175 38.1041 76.8733C38.8504 77.6923 39.8596 78.1433 40.9458 78.1433H48.877C50.6626 78.1433 52.1153 79.5958 52.1153 81.3814C52.1153 83.1669 50.6626 84.6194 48.877 84.6194H34.8534C33.2305 84.6194 31.7174 83.9239 30.5928 82.661C29.3489 81.2642 28.7631 79.3618 28.9864 77.4417L29.7174 71.1481C29.8106 70.345 29.235 69.6181 28.4319 69.5249C27.6303 69.4319 26.902 70.0071 26.8084 70.8103L26.0774 77.1038C25.8374 79.1696 26.2573 81.2274 27.244 82.98H24.9711C20.2788 82.98 16.4612 86.7976 16.4612 91.4899C16.4612 96.1823 20.2788 99.9999 24.9711 99.9999H63.3069C64.1157 99.9999 64.7711 99.3444 64.7711 98.5358C64.7711 97.7273 64.1157 97.0718 63.3069 97.0718H24.9711C21.8934 97.0718 19.3895 94.5679 19.3895 91.4901C19.3895 88.4124 21.8934 85.9085 24.9711 85.9085H29.8362C31.2959 86.9745 33.0249 87.548 34.8532 87.548H65.1686C66.9969 87.548 68.7256 86.9745 70.1856 85.9085H75.0506C78.1284 85.9085 80.6323 88.4124 80.6323 91.4901C80.6323 94.5679 78.1284 97.0718 75.0506 97.0718H70.1229C69.3141 97.0718 68.6588 97.7273 68.6588 98.5358C68.6588 99.3444 69.3143 99.9999 70.1229 99.9999H75.0506C79.743 99.9999 83.5606 96.1823 83.5606 91.4899C83.5604 86.7976 79.7428 82.98 75.0504 82.98ZM50.0108 42.0608C44.3971 42.0608 39.8301 37.4937 39.8301 31.88C39.8301 26.2663 44.3971 21.6993 50.0108 21.6993C55.6245 21.6993 60.1915 26.2663 60.1915 31.88C60.1915 37.4938 55.6245 42.0608 50.0108 42.0608Z" fill="#4081A0"/>
<path d="M50.0108 14.8047C50.8196 14.8047 51.4749 14.1492 51.4749 13.3406V1.46406C51.4749 0.655469 50.8196 0 50.0108 0C49.202 0 48.5468 0.655469 48.5468 1.46406V13.3404C48.5468 14.1492 49.202 14.8047 50.0108 14.8047Z" fill="#4081A0"/>
<path d="M22.1143 18.4156L32.3994 24.3537C32.6301 24.4869 32.8816 24.5502 33.1301 24.5502C33.6359 24.5502 34.1283 24.2875 34.3994 23.8177C34.8037 23.1173 34.5637 22.222 33.8635 21.8177L23.5783 15.8796C22.8777 15.475 21.9822 15.7154 21.5783 16.4156C21.174 17.116 21.4141 18.0115 22.1143 18.4156Z" fill="#4081A0"/>
<path d="M66.1578 43.8438L76.443 49.7819C76.6737 49.9151 76.9254 49.9784 77.1737 49.9784C77.6797 49.9784 78.1719 49.7157 78.443 49.246C78.8473 48.5456 78.6075 47.6503 77.9071 47.246L67.6219 41.3079C66.9213 40.9032 66.026 41.1436 65.6219 41.8438C65.2176 42.5442 65.4577 43.4397 66.1578 43.8438Z" fill="#4081A0"/>
<path d="M69.5011 31.3667C68.6923 31.3667 68.037 32.0222 68.037 32.8308C68.037 33.6394 68.6925 34.2948 69.5011 34.2948H75.4397C76.2483 34.2948 76.9038 33.6394 76.9038 32.8308C76.9038 32.0222 76.2483 31.3667 75.4397 31.3667H69.5011Z" fill="#4081A0"/>
<path d="M24.5819 31.3667C23.7733 31.3667 23.1178 32.0222 23.1178 32.8308C23.1178 33.6394 23.7733 34.2948 24.5819 34.2948H30.5205C31.3293 34.2948 31.9846 33.6394 31.9846 32.8308C31.9846 32.0222 31.3291 31.3667 30.5205 31.3667H24.5819Z" fill="#4081A0"/>
<path d="M22.8477 49.9788C23.0961 49.9788 23.3479 49.9155 23.5783 49.7823L33.8635 43.8442C34.5637 43.4399 34.8037 42.5444 34.3994 41.8442C33.9953 41.144 33.0992 40.9038 32.3994 41.3083L22.1143 47.2464C21.4141 47.6507 21.174 48.5462 21.5783 49.2464C21.8494 49.7161 22.3416 49.9788 22.8477 49.9788Z" fill="#4081A0"/>
<path d="M66.8912 24.5501C67.1397 24.5501 67.3916 24.4868 67.6219 24.3536L77.9071 18.4155C78.6073 18.0112 78.8473 17.1157 78.443 16.4155C78.0389 15.7153 77.1428 15.4751 76.443 15.8796L66.1578 21.8176C65.4577 22.2219 65.2176 23.1173 65.6219 23.8176C65.893 24.2874 66.3854 24.5501 66.8912 24.5501Z" fill="#4081A0"/>
<path d="M59.0239 17.2198C59.2544 17.353 59.5062 17.4163 59.7546 17.4163C60.2606 17.4163 60.7528 17.1536 61.0239 16.6838L64.8591 10.0413C65.2634 9.34107 65.0233 8.44556 64.3231 8.04127C63.6231 7.63678 62.7273 7.87662 62.3231 8.57721L58.488 15.2198C58.0837 15.92 58.3237 16.8153 59.0239 17.2198Z" fill="#4081A0"/>
<path d="M38.9977 16.6837C39.269 17.1534 39.761 17.4161 40.267 17.4161C40.5155 17.4161 40.7672 17.3527 40.9977 17.2197C41.6979 16.8154 41.9379 15.9199 41.5336 15.2197L37.6985 8.57708C37.294 7.87669 36.3985 7.63684 35.6985 8.04114C34.9983 8.44544 34.7583 9.34094 35.1626 10.0411L38.9977 16.6837Z" fill="#4081A0"/>
</svg>
