<svg width="100" height="100" viewBox="0 0 100 100" fill="none" xmlns="http://www.w3.org/2000/svg">
<path d="M70.9404 9.92188C65.005 9.92188 59.3044 12.1535 54.8879 16.2061C54.8013 16.2851 54.6764 16.2851 54.5899 16.2061C50.1733 12.1535 44.4728 9.92188 38.538 9.92188C25.2706 9.92188 14.4778 20.9721 14.4778 34.5547C14.4778 37.6728 15.5483 41.2221 17.6563 45.125C14.7903 45.7087 12.1213 47.0758 9.96931 49.1007C5.17786 53.6079 3.67685 60.7079 6.23325 66.7689L7.40604 69.5498C9.70426 74.9984 12.626 80.0432 16.0908 84.5428C16.3153 84.8347 16.5419 85.1251 16.7719 85.4142L17.7724 86.6742C19.6524 89.0424 22.4656 90.4006 25.4896 90.4006C28.0213 90.4006 30.4898 89.4036 32.3136 87.6554C34.1373 89.4043 36.6058 90.4006 39.1375 90.4006C42.1615 90.4006 44.974 89.0424 46.8547 86.6742L47.8552 85.4142C48.0845 85.1258 48.3111 84.8353 48.5364 84.5428C49.6597 83.0844 50.7247 81.5669 51.7306 79.9986C52.6789 80.4607 53.7082 80.6921 54.7389 80.6921C56.2248 80.6921 57.7114 80.2114 58.9521 79.2488C63.5795 75.6596 72.5032 68.4148 80.2767 60.219C90.0464 49.9192 94.9999 41.2846 94.9999 34.5547C95.0005 20.9721 84.2071 9.92188 70.9404 9.92188ZM45.7506 82.3977C45.5364 82.6758 45.3208 82.9526 45.1017 83.2279L44.1013 84.4879C42.8921 86.0109 41.0828 86.885 39.1375 86.885C37.4408 86.885 35.7873 86.1887 34.6022 84.974C33.9952 84.3526 33.1829 84.0107 32.3143 84.0107C31.4456 84.0107 30.6327 84.3526 30.025 84.974C28.8398 86.1887 27.1864 86.885 25.4896 86.885C23.5451 86.885 21.7357 86.0109 20.5259 84.4879L19.5254 83.2279C19.3071 82.9532 19.0908 82.6765 18.8772 82.3977C15.5957 78.1371 12.8265 73.3546 10.6457 68.1834L9.47286 65.4025C7.48432 60.6886 8.65231 55.1673 12.3781 51.6619C16.8365 47.4679 23.5705 47.1623 28.3901 50.9361L30.5557 52.6315V53.967C30.5557 60.7587 36.0812 66.2841 42.8729 66.2841H45.2281C46.199 66.2841 46.9859 65.4965 46.9859 64.5256V62.1704C46.9859 56.3044 42.8619 51.3852 37.3611 50.1534C42.0626 47.2337 48.1271 47.7851 52.2491 51.6619C55.9748 55.1673 57.1428 60.6886 55.1543 65.4025L53.9815 68.1834C51.8007 73.3539 49.0314 78.1364 45.7506 82.3977ZM34.0721 53.3696H34.6688C39.522 53.3696 43.4703 57.3172 43.4703 62.1704V62.7678H42.8729C38.0203 62.7678 34.0721 58.8196 34.0721 53.9663V53.3696ZM77.7265 57.7992C70.1129 65.8261 61.3458 72.9426 56.7974 76.4706C55.8595 77.1984 54.6345 77.3605 53.5667 76.9615C54.9167 74.5898 56.1389 72.1152 57.2211 69.5498L58.3939 66.7689C60.9503 60.7079 59.4493 53.6079 54.6585 49.1007C51.9064 46.5121 48.3118 44.9918 44.5373 44.8202C40.7607 44.6512 37.0453 45.8378 34.0693 48.1669L33.8304 48.3543C33.371 46.0987 32.2628 44.025 30.5976 42.3599L28.7245 40.4867C28.0378 39.8007 26.9254 39.8007 26.2381 40.4867C25.5521 41.1734 25.5521 42.2864 26.2381 42.9731L28.1113 44.8462C28.951 45.6867 29.5876 46.6748 30.0016 47.7515C27.5146 45.9751 24.5654 44.9589 21.5242 44.8208C19.1835 40.8802 17.9935 37.4277 17.9935 34.5547C17.9935 22.9105 27.2097 13.4375 38.538 13.4375C43.5897 13.4375 48.4464 15.3409 52.2127 18.7968C53.6526 20.1179 55.8251 20.1186 57.265 18.7968C61.0313 15.3409 65.888 13.4375 70.9404 13.4375C82.268 13.4375 91.4842 22.9105 91.4842 34.5547C91.4842 40.2725 86.7271 48.3104 77.7265 57.7992Z" fill="#4081A0"/>
<path d="M83.7099 34.6095H72.4646C71.7347 34.6095 71.0804 35.0606 70.8215 35.7425L66.8389 46.2105L60.3618 25.2182C60.1461 24.5213 59.5227 24.0289 58.7941 23.9822C58.0656 23.9349 57.3844 24.3441 57.0816 25.0081L52.7077 34.6095H41.9074C40.9371 34.6095 40.1495 35.3971 40.1495 36.3673C40.1495 37.3383 40.9371 38.1258 41.9074 38.1258H53.8386C54.5273 38.1258 55.1528 37.7235 55.4385 37.0966L58.365 30.6729L64.9857 52.1294C65.2068 52.8469 65.8591 53.3441 66.6089 53.3688C66.6281 53.3688 66.6473 53.3695 66.6659 53.3695C67.3937 53.3695 68.0488 52.9197 68.309 52.2365L73.6766 38.1258H83.7099C84.6808 38.1258 85.4677 37.3383 85.4677 36.368C85.4677 35.3971 84.6808 34.6095 83.7099 34.6095Z" fill="#4081A0"/>
<path d="M33.763 34.6094C33.2989 34.6094 32.847 34.7975 32.5202 35.1244C32.1913 35.4512 32.0045 35.9051 32.0045 36.3672C32.0045 36.83 32.1913 37.2832 32.5202 37.61C32.847 37.9369 33.3002 38.1257 33.763 38.1257C34.2251 38.1257 34.679 37.9376 35.0059 37.61C35.3327 37.2832 35.5208 36.83 35.5208 36.3672C35.5208 35.9051 35.3327 35.4512 35.0059 35.1244C34.679 34.7975 34.2251 34.6094 33.763 34.6094Z" fill="#4081A0"/>
</svg>
