<svg width="101" height="100" viewBox="0 0 101 100" fill="none" xmlns="http://www.w3.org/2000/svg">
<path d="M1.82324 91.3594C1.47949 91.8906 1.49512 92.5781 1.87012 93.0938C2.16699 93.5156 2.65137 93.7656 3.15137 93.7656C3.26074 93.7656 3.37012 93.7656 3.49512 93.7344L17.8545 90.5469C21.9951 92.6562 26.6357 93.7656 31.292 93.7656C47.4951 93.7656 60.6982 80.7031 60.9482 64.5469C67.9795 66.4531 75.6826 65.7344 82.2139 62.4219L96.5732 65.5937C96.6826 65.625 96.792 65.625 96.917 65.625C97.417 65.625 97.9014 65.375 98.1982 64.9531C98.5576 64.4375 98.5732 63.75 98.2451 63.2187L92.3857 53.9531C96.3232 48.8125 98.4795 42.4531 98.4795 35.9219C98.4795 19.5469 85.167 6.23438 68.792 6.23438C52.417 6.23438 39.3857 19.2969 39.1357 35.4375C36.6357 34.75 34.0107 34.3594 31.292 34.3594C14.8857 34.375 1.57324 47.6875 1.57324 64.0625C1.57324 70.5781 3.72949 76.9375 7.68262 82.0937L1.82324 91.3594ZM68.7607 9.375C83.4014 9.375 95.3232 21.2969 95.3232 35.9375C95.3232 42.1094 93.167 48.125 89.2295 52.8594C88.792 53.375 88.7451 54.125 89.1045 54.6875L93.5576 61.7187L82.3076 59.2344C81.9482 59.1562 81.5576 59.2031 81.2295 59.375C74.9951 62.6875 67.4795 63.3281 60.792 61.2344C59.7295 49.9687 52.3232 40.5156 42.1982 36.4844C42.1982 36.2969 42.1826 36.1094 42.1826 35.9219C42.1826 21.2813 54.1045 9.35937 68.7451 9.35937L68.7607 9.375ZM4.69824 64.0625C4.69824 49.4219 16.6201 37.5 31.2607 37.5C45.9014 37.5 57.8232 49.4219 57.8232 64.0625C57.8232 78.7031 45.9014 90.625 31.2607 90.625C26.917 90.625 22.6045 89.5469 18.7764 87.5C18.542 87.375 18.292 87.3125 18.042 87.3125C17.9326 87.3125 17.8076 87.3125 17.6982 87.3437L6.46387 89.8281L10.917 82.7969C11.2764 82.2187 11.2295 81.4844 10.8076 80.9687C6.87012 76.2187 4.71387 70.2031 4.71387 64.0312L4.69824 64.0625Z" fill="#4081A0"/>
<path d="M31.2607 78.125C32.5552 78.125 33.6045 77.0757 33.6045 75.7812C33.6045 74.4868 32.5552 73.4375 31.2607 73.4375C29.9663 73.4375 28.917 74.4868 28.917 75.7812C28.917 77.0757 29.9663 78.125 31.2607 78.125Z" fill="#4081A0"/>
<path d="M31.2607 51.5625C33.8389 51.5625 35.9482 53.6719 35.9482 56.25C35.9482 58.8281 33.8389 60.9375 31.2607 60.9375C30.4014 60.9375 29.6982 61.6406 29.6982 62.5V70.3125H32.8232V63.9063C36.3857 63.1875 39.0732 60.0313 39.0732 56.25C39.0732 51.9375 35.5732 48.4375 31.2607 48.4375C26.9482 48.4375 23.4482 51.9375 23.4482 56.25H26.5732C26.5732 53.6719 28.6826 51.5625 31.2607 51.5625Z" fill="#4081A0"/>
<path d="M56.2607 25H81.2607V28.125H56.2607V25Z" fill="#4081A0"/>
<path d="M56.2607 34.375H81.2607V37.5H56.2607V34.375Z" fill="#4081A0"/>
<path d="M62.5107 43.75H81.2607V46.875H62.5107V43.75Z" fill="#4081A0"/>
</svg>
