<svg width="101" height="100" viewBox="0 0 101 100" fill="none" xmlns="http://www.w3.org/2000/svg">
<path d="M78.0842 32.2498C77.3701 31.3561 76.6045 30.4873 75.8076 29.667L73.5654 31.842C74.292 32.592 74.992 33.3857 75.6436 34.2014L78.0842 32.2498Z" fill="#4081A0"/>
<path d="M79.0827 39.4574L81.8498 38.0059C81.3155 36.9887 80.728 35.9887 80.1045 35.0371L77.4905 36.7559C78.0592 37.6184 78.5952 38.5293 79.0827 39.4574Z" fill="#4081A0"/>
<path d="M73.292 27.3125C72.4202 26.5719 71.5045 25.8641 70.5686 25.2109L68.7795 27.7703C69.6327 28.3688 70.4702 29.0203 71.267 29.6937L73.292 27.3125Z" fill="#4081A0"/>
<path d="M82.6669 51.4373L85.7779 51.1248C85.6654 49.9795 85.4966 48.8326 85.2763 47.7139L82.2107 48.3186C82.4076 49.3451 82.5623 50.392 82.6669 51.4373Z" fill="#4081A0"/>
<path d="M81.4529 45.2746L84.4467 44.3777C84.1201 43.284 83.7342 42.1902 83.3029 41.1309L80.4076 42.309C80.8029 43.2809 81.1545 44.2746 81.4529 45.2746Z" fill="#4081A0"/>
<path d="M82.6858 57.7199L85.7967 58.0059C85.8967 56.9121 85.953 55.7949 85.953 54.5684L82.8233 54.6871C82.8233 55.6996 82.7764 56.7184 82.6858 57.7199Z" fill="#4081A0"/>
<path d="M42.3545 89.8066C43.3561 90.0238 44.3779 90.2004 45.3936 90.3301L45.7889 87.2316C44.8639 87.1113 43.9311 86.9504 43.0186 86.752L42.3545 89.8066Z" fill="#4081A0"/>
<path d="M48.5888 87.4684L48.4529 90.5934C48.9706 90.6142 49.4899 90.6246 50.0107 90.6246C50.5216 90.6246 51.0294 90.6137 51.5373 90.5918L51.4044 87.4668C50.4685 87.5105 49.5216 87.509 48.5888 87.4684Z" fill="#4081A0"/>
<path d="M36.4639 87.9842C37.417 88.3717 38.3936 88.7217 39.367 89.0217L40.2889 86.0357C39.4029 85.7623 38.5123 85.4436 37.642 85.0889L36.4639 87.9842Z" fill="#4081A0"/>
<path d="M59.6982 86.0449L60.6186 89.0309C61.5967 88.7293 62.5732 88.3793 63.5232 87.9934L62.3545 85.0996C61.4873 85.4512 60.5951 85.7699 59.6982 86.0449Z" fill="#4081A0"/>
<path d="M54.2107 87.2324L54.606 90.3324C55.6201 90.2027 56.6373 90.0199 57.6451 89.8105L56.9841 86.7559C56.0685 86.9543 55.1357 87.1152 54.2107 87.2324Z" fill="#4081A0"/>
<path d="M17.3342 57.6844C17.2436 56.6953 17.1982 55.6859 17.1982 54.6875V54.5312L14.0732 54.6875C14.0732 55.7812 14.1232 56.8828 14.2295 57.9687L17.3342 57.6844Z" fill="#4081A0"/>
<path d="M19.6233 42.2844L16.7295 41.1016C16.2983 42.1578 15.9123 43.25 15.5826 44.3469L18.5764 45.2453C18.8764 44.2438 19.2295 43.2484 19.6233 42.2844Z" fill="#4081A0"/>
<path d="M31.2608 27.7598L29.4733 25.1973C28.5358 25.8535 27.6155 26.5613 26.7467 27.3004L28.7608 29.6879C29.5608 29.0051 30.3967 28.3582 31.2608 27.7598Z" fill="#4081A0"/>
<path d="M17.8232 48.2938L14.7544 47.6875C14.5326 48.8094 14.3638 49.9563 14.2498 51.0938L17.3607 51.4063C17.4623 50.3641 17.6185 49.3172 17.8232 48.2938Z" fill="#4081A0"/>
<path d="M22.5436 36.7285L19.9311 35.0098C19.3061 35.9676 18.7155 36.966 18.1842 37.9785L20.9498 39.4332C21.4358 38.5145 21.9717 37.6035 22.5436 36.7285Z" fill="#4081A0"/>
<path d="M26.4702 31.8295L24.2295 29.6514C23.4342 30.4686 22.667 31.3373 21.9514 32.2295L24.3889 34.1857C25.0452 33.3686 25.7452 32.5764 26.4702 31.8295Z" fill="#4081A0"/>
<path d="M81.2607 60.9372C78.8584 60.9385 76.4832 61.4453 74.2895 62.4246C72.0958 63.404 70.1328 64.8339 68.5279 66.6216L58.3357 58.9779C59.0149 57.6688 59.3748 56.2177 59.3858 54.743C59.3969 53.2683 59.0588 51.812 58.3993 50.4929C57.7398 49.1739 56.7775 48.0296 55.5911 47.1537C54.4048 46.2777 53.0279 45.6949 51.5732 45.4529V38.9825C55.9779 38.5804 60.058 36.4958 62.9649 33.1621C65.8718 29.8285 67.3817 25.5026 67.1804 21.0842C66.9792 16.6657 65.0823 12.4949 61.8844 9.43939C58.6865 6.38383 54.4337 4.67871 50.0107 4.67871C45.5877 4.67871 41.3349 6.38383 38.137 9.43939C34.9391 12.4949 33.0423 16.6657 32.841 21.0842C32.6398 25.5026 34.1496 29.8285 37.0565 33.1621C39.9634 36.4958 44.0435 38.5804 48.4482 38.9825V45.4529C46.9934 45.6951 45.6166 46.2781 44.4303 47.1543C43.2439 48.0304 42.2817 49.1748 41.6222 50.4939C40.9627 51.8131 40.6246 53.2695 40.6357 54.7443C40.6467 56.2191 41.0065 57.6703 41.6857 58.9794L31.4951 66.6216C28.5223 63.3281 24.3942 61.3076 19.9696 60.9804C15.545 60.6531 11.1646 62.0444 7.73967 64.8647C4.31473 67.6849 2.10901 71.7171 1.58138 76.1223C1.05375 80.5275 2.24484 84.9666 4.90685 88.5159C7.56886 92.0653 11.4968 94.4516 15.8736 95.1786C20.2503 95.9055 24.7388 94.917 28.4052 92.4188C32.0717 89.9205 34.6338 86.1048 35.5586 81.7656C36.4833 77.4263 35.6994 72.8976 33.3701 69.1216L43.5623 61.4794C45.2983 63.139 47.6075 64.0652 50.0091 64.0652C52.4108 64.0652 54.72 63.139 56.456 61.4794L66.6482 69.1216C64.6592 72.3601 63.8009 76.1671 64.2078 79.9458C64.6147 83.7245 66.2638 87.2614 68.8966 90.0023C71.5294 92.7431 74.9972 94.533 78.7565 95.0915C82.5158 95.6499 86.3541 94.9453 89.67 93.0881C92.9858 91.2309 95.5918 88.3261 97.0796 84.8288C98.5673 81.3316 98.8526 77.4395 97.8909 73.7627C96.9292 70.0858 94.7748 66.8319 91.7653 64.511C88.7558 62.19 85.0613 60.9331 81.2607 60.9372ZM12.5107 90.7029V87.4997C12.5107 85.8421 13.1692 84.2524 14.3413 83.0803C15.5134 81.9082 17.1031 81.2497 18.7607 81.2497C20.4183 81.2497 22.008 81.9082 23.1801 83.0803C24.3522 84.2524 25.0107 85.8421 25.0107 87.4997V90.7029C23.0717 91.6784 20.9313 92.1865 18.7607 92.1865C16.5901 92.1865 14.4497 91.6784 12.5107 90.7029ZM15.6357 74.9997V73.4372C15.6357 72.6084 15.965 71.8136 16.551 71.2275C17.1371 70.6415 17.9319 70.3122 18.7607 70.3122C19.5895 70.3122 20.3844 70.6415 20.9704 71.2275C21.5565 71.8136 21.8857 72.6084 21.8857 73.4372V74.9997C21.8857 75.8285 21.5565 76.6234 20.9704 77.2094C20.3844 77.7955 19.5895 78.1247 18.7607 78.1247C17.9319 78.1247 17.1371 77.7955 16.551 77.2094C15.965 76.6234 15.6357 75.8285 15.6357 74.9997ZM28.1357 88.5763V87.4997C28.1347 85.8224 27.6838 84.1761 26.8299 82.7325C25.976 81.2888 24.7505 80.1007 23.281 79.2919C24.3885 78.1371 25.0081 76.5998 25.0107 74.9997V73.4372C25.0107 71.7796 24.3522 70.1899 23.1801 69.0178C22.008 67.8457 20.4183 67.1872 18.7607 67.1872C17.1031 67.1872 15.5134 67.8457 14.3413 69.0178C13.1692 70.1899 12.5107 71.7796 12.5107 73.4372V74.9997C12.5133 76.5998 13.1329 78.1371 14.2404 79.2919C12.771 80.1007 11.5454 81.2888 10.6915 82.7325C9.83762 84.1761 9.38668 85.8224 9.38571 87.4997V88.5763C7.26293 86.6776 5.76668 84.1791 5.09495 81.4115C4.42322 78.6438 4.60768 75.7374 5.62391 73.0769C6.64014 70.4164 8.44025 68.1271 10.786 66.512C13.1318 64.897 15.9127 64.0322 18.7607 64.0322C21.6087 64.0322 24.3896 64.897 26.7354 66.512C29.0812 68.1271 30.8813 70.4164 31.8975 73.0769C32.9137 75.7374 33.0982 78.6438 32.4265 81.4115C31.7547 84.1791 30.2585 86.6776 28.1357 88.5763ZM46.8857 18.7497V17.1872C46.8857 16.3584 47.215 15.5636 47.801 14.9775C48.3871 14.3915 49.1819 14.0622 50.0107 14.0622C50.8395 14.0622 51.6344 14.3915 52.2204 14.9775C52.8065 15.5636 53.1357 16.3584 53.1357 17.1872V18.7497C53.1357 19.5785 52.8065 20.3734 52.2204 20.9594C51.6344 21.5455 50.8395 21.8747 50.0107 21.8747C49.1819 21.8747 48.3871 21.5455 47.801 20.9594C47.215 20.3734 46.8857 19.5785 46.8857 18.7497ZM50.0107 24.9997C51.6683 24.9997 53.258 25.6582 54.4301 26.8303C55.6022 28.0024 56.2607 29.5921 56.2607 31.2497V34.4529C54.3217 35.4284 52.1813 35.9365 50.0107 35.9365C47.8401 35.9365 45.6997 35.4284 43.7607 34.4529V31.2497C43.7607 29.5921 44.4192 28.0024 45.5913 26.8303C46.7634 25.6582 48.3531 24.9997 50.0107 24.9997ZM35.9482 21.8747C35.9432 19.5278 36.5257 17.2168 37.6426 15.1527C38.7595 13.0885 40.3752 11.3366 42.3426 10.0569C44.3099 8.77709 46.5663 8.01006 48.9061 7.8257C51.2458 7.64134 53.5945 8.04552 55.738 9.00138C57.8815 9.95725 59.7517 11.4344 61.1781 13.2982C62.6044 15.162 63.5417 17.3532 63.9043 19.6719C64.2669 21.9907 64.0434 24.3634 63.2542 26.5737C62.4649 28.784 61.135 30.7616 59.3857 32.3263V31.2497C59.3847 29.5724 58.9338 27.9261 58.0799 26.4825C57.226 25.0388 56.0005 23.8506 54.531 23.0419C55.6385 21.8871 56.2581 20.3498 56.2607 18.7497V17.1872C56.2607 15.5296 55.6022 13.9399 54.4301 12.7678C53.258 11.5957 51.6683 10.9372 50.0107 10.9372C48.3531 10.9372 46.7634 11.5957 45.5913 12.7678C44.4192 13.9399 43.7607 15.5296 43.7607 17.1872V18.7497C43.7633 20.3498 44.3829 21.8871 45.4904 23.0419C44.021 23.8506 42.7954 25.0388 41.9415 26.4825C41.0876 27.9261 40.6367 29.5724 40.6357 31.2497V32.3263C39.1625 31.0125 37.9834 29.4023 37.1756 27.6012C36.3679 25.8001 35.9496 23.8487 35.9482 21.8747ZM50.0107 60.9372C48.7746 60.9372 47.5662 60.5707 46.5384 59.8839C45.5106 59.1972 44.7095 58.221 44.2365 57.079C43.7634 55.937 43.6396 54.6803 43.8808 53.4679C44.122 52.2555 44.7172 51.1419 45.5913 50.2678C46.4654 49.3937 47.579 48.7985 48.7914 48.5573C50.0038 48.3162 51.2604 48.4399 52.4025 48.913C53.5445 49.386 54.5206 50.1871 55.2074 51.2149C55.8942 52.2427 56.2607 53.4511 56.2607 54.6872C56.2607 56.3448 55.6022 57.9345 54.4301 59.1066C53.258 60.2787 51.6683 60.9372 50.0107 60.9372ZM75.0107 90.7029V87.4997C75.0107 85.8421 75.6692 84.2524 76.8413 83.0803C78.0134 81.9082 79.6031 81.2497 81.2607 81.2497C82.9183 81.2497 84.508 81.9082 85.6801 83.0803C86.8522 84.2524 87.5107 85.8421 87.5107 87.4997V90.7029C85.5717 91.6784 83.4313 92.1865 81.2607 92.1865C79.0901 92.1865 76.9497 91.6784 75.0107 90.7029ZM78.1357 74.9997V73.4372C78.1357 72.6084 78.4649 71.8136 79.051 71.2275C79.6371 70.6415 80.4319 70.3122 81.2607 70.3122C82.0895 70.3122 82.8844 70.6415 83.4704 71.2275C84.0565 71.8136 84.3857 72.6084 84.3857 73.4372V74.9997C84.3857 75.8285 84.0565 76.6234 83.4704 77.2094C82.8844 77.7955 82.0895 78.1247 81.2607 78.1247C80.4319 78.1247 79.6371 77.7955 79.051 77.2094C78.4649 76.6234 78.1357 75.8285 78.1357 74.9997ZM90.6357 88.5763V87.4997C90.6347 85.8224 90.1838 84.1761 89.3299 82.7325C88.476 81.2888 87.2505 80.1007 85.781 79.2919C86.8885 78.1371 87.5081 76.5998 87.5107 74.9997V73.4372C87.5107 71.7796 86.8522 70.1899 85.6801 69.0178C84.508 67.8457 82.9183 67.1872 81.2607 67.1872C79.6031 67.1872 78.0134 67.8457 76.8413 69.0178C75.6692 70.1899 75.0107 71.7796 75.0107 73.4372V74.9997C75.0133 76.5998 75.6329 78.1371 76.7404 79.2919C75.271 80.1007 74.0454 81.2888 73.1915 82.7325C72.3376 84.1761 71.8867 85.8224 71.8857 87.4997V88.5763C69.7629 86.6776 68.2667 84.1791 67.595 81.4115C66.9232 78.6438 67.1077 75.7374 68.1239 73.0769C69.1401 70.4164 70.9402 68.1271 73.286 66.512C75.6318 64.897 78.4127 64.0322 81.2607 64.0322C84.1087 64.0322 86.8896 64.897 89.2354 66.512C91.5812 68.1271 93.3813 70.4164 94.3975 73.0769C95.4137 75.7374 95.5982 78.6438 94.9265 81.4115C94.2547 84.1791 92.7585 86.6776 90.6357 88.5763Z" fill="#4081A0"/>
</svg>
