<svg width="100" height="100" viewBox="0 0 100 100" fill="none" xmlns="http://www.w3.org/2000/svg">
<path d="M75.0396 82.98H72.7668C73.7535 81.2273 74.1732 79.1694 73.9334 77.1038L72.1066 61.3804C71.5295 56.4142 68.4391 52.1782 64.041 50.3257L59.3379 48.3444C58.2453 47.8843 57.5113 46.7138 57.5113 45.438L57.5234 42.6056C60.8978 40.2315 63.1092 36.3103 63.1092 31.88C63.1092 24.6517 57.2287 18.771 50.0002 18.771C42.7717 18.771 36.8912 24.6517 36.8912 31.88C36.8912 36.3103 39.1023 40.2315 42.4769 42.6056L42.4891 45.4317C42.4891 46.7136 41.7551 47.8843 40.6625 48.3444L35.9594 50.3257C31.5613 52.1782 28.4709 56.4142 27.8937 61.3804L27.5709 64.1577C27.4777 64.9608 28.0531 65.6878 28.8562 65.781C28.9139 65.7876 28.9709 65.7909 29.0271 65.7909C29.7601 65.7909 30.393 65.2415 30.4797 64.4956L30.8025 61.7183C31.2578 57.7989 33.6691 54.4677 37.0959 53.0241L41.799 51.0429C43.9969 50.1171 45.4172 47.9146 45.4172 45.4255L45.4117 44.1585C46.8406 44.6942 48.3863 44.9892 50.0002 44.9892C51.6141 44.9892 53.1598 44.6942 54.5887 44.1585L54.5832 45.4317C54.5832 47.9146 56.0035 50.1173 58.2014 51.0429L62.9045 53.0241C66.331 54.4677 68.7426 57.7989 69.1978 61.7183L71.0246 77.4417C71.2478 79.3616 70.6621 81.264 69.4182 82.661C68.2935 83.9239 66.7805 84.6194 65.1576 84.6194H54.1107C54.6943 83.6776 55.0324 82.5685 55.0324 81.3814C55.0324 80.1942 54.6943 79.0851 54.1107 78.1433H59.0652C60.1514 78.1433 61.1603 77.6923 61.9068 76.8733C62.6867 76.0175 63.0715 74.8532 62.9625 73.6792L61.8523 61.7362C61.7775 60.9312 61.065 60.3382 60.259 60.414C59.4539 60.4888 58.8617 61.2022 58.9367 62.0073L60.0469 73.9503C60.0799 74.306 59.9691 74.6524 59.7426 74.9009C59.6355 75.0183 59.4055 75.2149 59.0654 75.2149H40.9348C40.5947 75.2149 40.3646 75.0183 40.2576 74.9009C40.031 74.6524 39.9203 74.306 39.9533 73.9503L41.0635 62.0073C41.1385 61.2021 40.5463 60.4888 39.7412 60.414C38.9355 60.3378 38.2226 60.9312 38.1478 61.7362L37.0377 73.6792C36.9287 74.8532 37.3135 76.0175 38.0933 76.8733C38.8396 77.6923 39.8488 78.1433 40.935 78.1433H48.8662C50.6517 78.1433 52.1045 79.5958 52.1045 81.3814C52.1045 83.1669 50.6517 84.6194 48.8662 84.6194H34.8426C33.2197 84.6194 31.7066 83.9239 30.582 82.661C29.3381 81.2642 28.7523 79.3618 28.9756 77.4417L29.7066 71.1481C29.7998 70.345 29.2242 69.6181 28.4211 69.5249C27.6195 69.4319 26.8912 70.0071 26.7976 70.8103L26.0666 77.1038C25.8266 79.1696 26.2465 81.2274 27.2332 82.98H24.9603C20.268 82.98 16.4504 86.7976 16.4504 91.4899C16.4504 96.1823 20.268 99.9999 24.9603 99.9999H63.2961C64.1049 99.9999 64.7603 99.3444 64.7603 98.5358C64.7603 97.7273 64.1049 97.0718 63.2961 97.0718H24.9603C21.8826 97.0718 19.3787 94.5679 19.3787 91.4901C19.3787 88.4124 21.8826 85.9085 24.9603 85.9085H29.8254C31.2851 86.9745 33.0141 87.548 34.8424 87.548H65.1578C66.9861 87.548 68.7148 86.9745 70.1748 85.9085H75.0398C78.1176 85.9085 80.6215 88.4124 80.6215 91.4901C80.6215 94.5679 78.1176 97.0718 75.0398 97.0718H70.1121C69.3033 97.0718 68.648 97.7273 68.648 98.5358C68.648 99.3444 69.3035 99.9999 70.1121 99.9999H75.0398C79.7322 99.9999 83.5498 96.1823 83.5498 91.4899C83.5496 86.7976 79.732 82.98 75.0396 82.98ZM50 42.0608C44.3863 42.0608 39.8193 37.4937 39.8193 31.88C39.8193 26.2663 44.3863 21.6993 50 21.6993C55.6137 21.6993 60.1807 26.2663 60.1807 31.88C60.1807 37.4938 55.6137 42.0608 50 42.0608Z" fill="white"/>
<path d="M50 14.8047C50.8088 14.8047 51.464 14.1492 51.464 13.3406V1.46406C51.464 0.655469 50.8088 0 50 0C49.1912 0 48.5359 0.655469 48.5359 1.46406V13.3404C48.5359 14.1492 49.1912 14.8047 50 14.8047Z" fill="white"/>
<path d="M22.1035 18.4156L32.3886 24.3537C32.6193 24.4869 32.8709 24.5502 33.1193 24.5502C33.6252 24.5502 34.1176 24.2875 34.3886 23.8177C34.7929 23.1173 34.5529 22.222 33.8527 21.8177L23.5676 15.8796C22.867 15.475 21.9715 15.7154 21.5676 16.4156C21.1633 17.116 21.4033 18.0115 22.1035 18.4156Z" fill="white"/>
<path d="M66.1471 43.8438L76.4322 49.7819C76.6629 49.9151 76.9147 49.9784 77.1629 49.9784C77.6689 49.9784 78.1611 49.7157 78.4322 49.246C78.8365 48.5456 78.5967 47.6503 77.8963 47.246L67.6111 41.3079C66.9106 40.9032 66.0152 41.1436 65.6111 41.8438C65.2068 42.5442 65.4469 43.4397 66.1471 43.8438Z" fill="white"/>
<path d="M69.4902 31.3667C68.6814 31.3667 68.0262 32.0222 68.0262 32.8308C68.0262 33.6394 68.6816 34.2948 69.4902 34.2948H75.4289C76.2375 34.2948 76.8929 33.6394 76.8929 32.8308C76.8929 32.0222 76.2375 31.3667 75.4289 31.3667H69.4902Z" fill="white"/>
<path d="M24.5711 31.3667C23.7625 31.3667 23.107 32.0222 23.107 32.8308C23.107 33.6394 23.7625 34.2948 24.5711 34.2948H30.5098C31.3185 34.2948 31.9738 33.6394 31.9738 32.8308C31.9738 32.0222 31.3184 31.3667 30.5098 31.3667H24.5711Z" fill="white"/>
<path d="M22.8369 49.9788C23.0853 49.9788 23.3371 49.9155 23.5676 49.7823L33.8527 43.8442C34.5529 43.4399 34.7929 42.5444 34.3886 41.8442C33.9845 41.144 33.0885 40.9038 32.3886 41.3083L22.1035 47.2464C21.4033 47.6507 21.1633 48.5462 21.5676 49.2464C21.8386 49.7161 22.3308 49.9788 22.8369 49.9788Z" fill="white"/>
<path d="M66.8805 24.5501C67.1289 24.5501 67.3809 24.4868 67.6111 24.3536L77.8963 18.4155C78.5965 18.0112 78.8365 17.1157 78.4322 16.4155C78.0281 15.7153 77.132 15.4751 76.4322 15.8796L66.1471 21.8176C65.4469 22.2219 65.2068 23.1173 65.6111 23.8176C65.8822 24.2874 66.3746 24.5501 66.8805 24.5501Z" fill="white"/>
<path d="M59.0131 17.2198C59.2435 17.353 59.4953 17.4163 59.7437 17.4163C60.2498 17.4163 60.742 17.1536 61.0131 16.6838L64.8482 10.0413C65.2525 9.34107 65.0125 8.44556 64.3123 8.04127C63.6123 7.63678 62.7164 7.87662 62.3123 8.57721L58.4771 15.2198C58.0728 15.92 58.3129 16.8153 59.0131 17.2198Z" fill="white"/>
<path d="M38.9869 16.6837C39.2582 17.1534 39.7502 17.4161 40.2562 17.4161C40.5047 17.4161 40.7564 17.3527 40.9869 17.2197C41.6871 16.8154 41.9271 15.9199 41.5228 15.2197L37.6877 8.57708C37.2832 7.87669 36.3877 7.63684 35.6877 8.04114C34.9875 8.44544 34.7475 9.34094 35.1518 10.0411L38.9869 16.6837Z" fill="white"/>
</svg>
