<svg width="101" height="100" viewBox="0 0 101 100" fill="none" xmlns="http://www.w3.org/2000/svg">
<path d="M43.6799 30.841C43.589 30.5681 43.4245 30.3257 43.2045 30.1404C42.9845 29.9552 42.7175 29.8343 42.4332 29.7912L38.9191 29.2563L37.3338 25.8955C37.2073 25.6277 37.0074 25.4013 36.7572 25.2427C36.507 25.0842 36.217 25 35.9208 25C35.6246 25 35.3345 25.0842 35.0843 25.2427C34.8342 25.4013 34.6342 25.6277 34.5078 25.8955L32.9224 29.2563L29.4084 29.7912C29.1241 29.8346 28.8573 29.9556 28.6374 30.1408C28.4175 30.3261 28.2529 30.5684 28.1619 30.8412C28.0709 31.1139 28.0569 31.4065 28.1215 31.6867C28.186 31.9669 28.3267 32.2239 28.5279 32.4293L31.1127 35.0676L30.4994 38.809C30.452 39.0983 30.4869 39.3952 30.6002 39.6656C30.7135 39.936 30.9006 40.1691 31.1402 40.3382C31.3797 40.5073 31.662 40.6056 31.9547 40.6218C32.2475 40.6381 32.5389 40.5716 32.7957 40.4301L35.9207 38.7098L39.0472 40.4301C39.304 40.5717 39.5955 40.6382 39.8883 40.622C40.181 40.6058 40.4634 40.5075 40.7029 40.3384C40.9425 40.1693 41.1296 39.9362 41.2429 39.6657C41.3563 39.3952 41.3912 39.0984 41.3437 38.809L40.7289 35.0668L43.3137 32.4301C43.5151 32.2246 43.6559 31.9675 43.7205 31.6871C43.7851 31.4067 43.7711 31.1139 43.6799 30.841ZM37.9441 33.4455C37.7722 33.6206 37.644 33.8336 37.5697 34.0674C37.4955 34.3013 37.4774 34.5493 37.5168 34.7914L37.7396 36.1434L36.6746 35.5574C36.4437 35.4303 36.1844 35.3636 35.9208 35.3636C35.6572 35.3636 35.3979 35.4303 35.167 35.5574L34.1035 36.1434L34.3248 34.7914C34.3642 34.5493 34.3461 34.3013 34.2718 34.0674C34.1976 33.8336 34.0693 33.6206 33.8974 33.4455L32.8949 32.4213L34.2164 32.2207C34.4698 32.1821 34.7097 32.0817 34.9151 31.9284C35.1206 31.7751 35.2851 31.5737 35.3943 31.3418L35.9217 30.2256L36.449 31.3418C36.5582 31.5737 36.7228 31.7751 36.9282 31.9284C37.1336 32.0817 37.3736 32.1821 37.6269 32.2207L38.9467 32.4213L37.9441 33.4455Z" fill="#4081A0"/>
<path d="M70.5576 57.9162L67.0441 57.3822L65.4588 54.0215C65.3323 53.7536 65.1324 53.5273 64.8822 53.3687C64.632 53.2102 64.342 53.126 64.0458 53.126C63.7496 53.126 63.4595 53.2102 63.2093 53.3687C62.9592 53.5273 62.7592 53.7536 62.6328 54.0215L61.0474 57.3822L57.5334 57.9172C57.2491 57.9606 56.9823 58.0815 56.7624 58.2668C56.5425 58.452 56.3779 58.6944 56.2869 58.9672C56.1959 59.2399 56.1819 59.5325 56.2465 59.8127C56.311 60.0929 56.4517 60.3499 56.6529 60.5553L59.2377 63.1936L58.6244 66.935C58.577 67.2243 58.6119 67.5212 58.7252 67.7916C58.8385 68.062 59.0256 68.2951 59.2652 68.4642C59.5047 68.6333 59.787 68.7316 60.0797 68.7478C60.3725 68.7641 60.6639 68.6976 60.9207 68.5561L64.0457 66.8357L67.1722 68.5561C67.429 68.6977 67.7205 68.7642 68.0133 68.748C68.306 68.7317 68.5884 68.6335 68.8279 68.4643C69.0675 68.2952 69.2546 68.0621 69.3679 67.7917C69.4813 67.5212 69.5162 67.2243 69.4687 66.935L68.8539 63.1928L71.4387 60.5561C71.6399 60.3507 71.7805 60.0937 71.8451 59.8135C71.9097 59.5333 71.8957 59.2407 71.8046 58.9679C71.7136 58.6952 71.5491 58.4528 71.3292 58.2676C71.1092 58.0823 70.8424 57.9613 70.5582 57.918L70.5576 57.9162ZM66.0685 61.5705C65.8966 61.7456 65.7684 61.9586 65.6941 62.1924C65.6199 62.4263 65.6018 62.6743 65.6412 62.9164L65.864 64.2684L64.799 63.6824C64.5681 63.5553 64.3088 63.4886 64.0452 63.4886C63.7816 63.4886 63.5223 63.5553 63.2914 63.6824L62.2279 64.2684L62.4492 62.9164C62.4886 62.6743 62.4705 62.4263 62.3962 62.1924C62.322 61.9586 62.1937 61.7456 62.0219 61.5705L61.0199 60.5463L62.3414 60.3457C62.5948 60.3071 62.8347 60.2067 63.0401 60.0534C63.2456 59.9001 63.4101 59.6987 63.5193 59.4668L64.0457 58.3506L64.573 59.4668C64.6822 59.6987 64.8468 59.9001 65.0522 60.0534C65.2576 60.2067 65.4976 60.3071 65.751 60.3457L67.0717 60.5463L66.0685 61.5705Z" fill="#4081A0"/>
<path d="M95.1568 22.7733C95.0645 22.5899 94.9369 22.4265 94.7814 22.2924C94.6259 22.1583 94.4456 22.0562 94.2506 21.9918C94.0556 21.9274 93.8499 21.9021 93.6451 21.9172C93.4403 21.9323 93.2406 21.9876 93.0572 22.08C92.8738 22.1723 92.7104 22.2998 92.5763 22.4553C92.4422 22.6108 92.34 22.7912 92.2757 22.9862C92.2113 23.1811 92.1859 23.3869 92.201 23.5916C92.2162 23.7964 92.2715 23.9962 92.3638 24.1796C94.0041 27.4262 94.9849 30.9657 95.2495 34.5936C95.5141 38.2215 95.0572 41.8658 93.9052 45.3161H51.5732V15.7567C56.6151 11.4225 63.1066 9.1499 69.7509 9.39284C76.6664 9.64675 83.1222 12.6315 87.9289 17.7997C88.0686 17.95 88.2367 18.0712 88.4233 18.1566C88.61 18.2419 88.8116 18.2897 89.0167 18.2971C89.2218 18.3045 89.4264 18.2714 89.6187 18.1998C89.811 18.1282 89.9874 18.0193 90.1376 17.8796C90.2879 17.7398 90.4092 17.5718 90.4945 17.3851C90.5799 17.1985 90.6276 16.9968 90.635 16.7917C90.6425 16.5866 90.6094 16.382 90.5378 16.1897C90.4661 15.9974 90.3573 15.821 90.2175 15.6708C84.8419 9.89265 77.6138 6.55319 69.8638 6.2694C62.6515 6.00158 55.5902 8.38085 50.0107 12.9589C44.4277 8.38703 37.3689 6.00858 30.1576 6.2694C14.3951 6.84694 1.57318 20.4639 1.57318 36.6245C1.55714 44.6104 4.65604 52.2878 10.2113 58.0249L23.1048 71.3969C23.2473 71.5446 23.4175 71.6628 23.6056 71.7447C23.7937 71.8267 23.9962 71.8707 24.2013 71.8744C24.4065 71.8781 24.6104 71.8413 24.8013 71.7662C24.9923 71.6911 25.1666 71.5792 25.3143 71.4367C25.462 71.2942 25.5802 71.1241 25.6621 70.9359C25.744 70.7478 25.7881 70.5454 25.7918 70.3402C25.7955 70.135 25.7587 69.9311 25.6836 69.7402C25.6085 69.5492 25.4965 69.3749 25.354 69.2272L12.4603 55.8551C10.3696 53.6776 8.64907 51.1729 7.36674 48.4401H23.4482C23.8626 48.4401 24.26 48.2755 24.553 47.9825C24.8461 47.6894 25.0107 47.292 25.0107 46.8776C25.0107 46.4632 24.8461 46.0658 24.553 45.7728C24.26 45.4797 23.8626 45.3151 23.4482 45.3151H6.11537C5.18259 42.5123 4.70415 39.5784 4.69818 36.6245C4.69818 22.1249 16.1697 9.90866 30.2705 9.39284C36.9152 9.14734 43.4075 11.4202 48.4482 15.7565V45.3151H29.6982C29.2838 45.3151 28.8864 45.4797 28.5933 45.7728C28.3003 46.0658 28.1357 46.4632 28.1357 46.8776C28.1357 47.292 28.3003 47.6894 28.5933 47.9825C28.8864 48.2755 29.2838 48.4401 29.6982 48.4401H48.4482V90.4819C46.4481 90.1476 44.6072 89.1827 43.1943 87.728L29.874 73.9151C29.7315 73.7674 29.5613 73.6493 29.3732 73.5674C29.1851 73.4854 28.9826 73.4414 28.7775 73.4377C28.5723 73.434 28.3685 73.4708 28.1775 73.5459C27.9866 73.621 27.8123 73.733 27.6646 73.8755C27.5169 74.0179 27.3988 74.1881 27.3168 74.3762C27.2349 74.5644 27.1909 74.7668 27.1872 74.9719C27.1835 75.1771 27.2203 75.381 27.2954 75.5719C27.3705 75.7629 27.4825 75.9372 27.6249 76.0848L40.9453 89.8971C42.1199 91.1155 43.528 92.0846 45.0856 92.7465C46.6431 93.4083 48.3181 93.7495 50.0105 93.7495C51.7029 93.7495 53.3779 93.4083 54.9354 92.7465C56.493 92.0846 57.9011 91.1155 59.0757 89.8971L89.8101 58.0249C94.2451 53.4279 97.1419 47.5663 98.0998 41.2509C99.0576 34.9356 98.0292 28.4786 95.1568 22.7733ZM87.5611 55.8551L56.8271 87.7284C55.4141 89.1829 53.5733 90.1478 51.5732 90.4823V48.4401H92.6546C91.3723 51.1729 89.6518 53.6776 87.5611 55.8551Z" fill="#4081A0"/>
</svg>
