<svg width="91" height="90" viewBox="0 0 91 90" fill="none" xmlns="http://www.w3.org/2000/svg">
<g clip-path="url(#clip0_821_109)">
<path d="M65.9511 4.92188C60.0157 4.92188 54.3151 7.15349 49.8986 11.2061C49.8121 11.2851 49.6871 11.2851 49.6006 11.2061C45.1841 7.15349 39.4835 4.92188 33.5488 4.92188C20.2813 4.92188 9.48859 15.9721 9.48859 29.5547C9.48859 32.6728 10.5591 36.2221 12.6671 40.125C9.80101 40.7087 7.13201 42.0758 4.98005 44.1007C0.188607 48.6079 -1.31241 55.7079 1.24399 61.7689L2.41679 64.5498C4.715 69.9984 7.63669 75.0432 11.1015 79.5428C11.3261 79.8347 11.5527 80.1251 11.7827 80.4142L12.7831 81.6742C14.6632 84.0424 17.4764 85.4006 20.5004 85.4006C23.0321 85.4006 25.5006 84.4036 27.3243 82.6554C29.1481 84.4043 31.6166 85.4006 34.1482 85.4006C37.1722 85.4006 39.9848 84.0424 41.8655 81.6742L42.8659 80.4142C43.0953 80.1258 43.3219 79.8353 43.5471 79.5428C44.6705 78.0844 45.7354 76.5669 46.7414 74.9986C47.6896 75.4607 48.7189 75.6921 49.7496 75.6921C51.2355 75.6921 52.7221 75.2114 53.9629 74.2488C58.5902 70.6596 67.5139 63.4148 75.2875 55.219C85.0571 44.9192 90.0106 36.2846 90.0106 29.5547C90.0113 15.9721 79.2179 4.92188 65.9511 4.92188ZM40.7614 77.3977C40.5471 77.6758 40.3315 77.9526 40.1125 78.2279L39.112 79.4879C37.9028 81.0109 36.0935 81.885 34.1482 81.885C32.4515 81.885 30.7981 81.1887 29.6129 79.974C29.0059 79.3526 28.1936 79.0107 27.325 79.0107C26.4564 79.0107 25.6434 79.3526 25.0357 79.974C23.8506 81.1887 22.1971 81.885 20.5004 81.885C18.5558 81.885 16.7465 81.0109 15.5366 79.4879L14.5362 78.2279C14.3178 77.9532 14.1015 77.6765 13.888 77.3977C10.6065 73.1371 7.8372 68.3546 5.6564 63.1834L4.4836 60.4025C2.49506 55.6886 3.66305 50.1673 7.38881 46.6619C11.8472 42.4679 18.5812 42.1623 23.4008 45.9361L25.5665 47.6315V48.967C25.5665 55.7587 31.092 61.2841 37.8836 61.2841H40.2388C41.2097 61.2841 41.9966 60.4965 41.9966 59.5256V57.1704C41.9966 51.3044 37.8726 46.3852 32.3719 45.1534C37.0734 42.2337 43.1378 42.7851 47.2598 46.6619C50.9856 50.1673 52.1536 55.6886 50.165 60.4025L48.9922 63.1834C46.8114 68.3539 44.0422 73.1364 40.7614 77.3977ZM29.0828 48.3696H29.6795C34.5328 48.3696 38.481 52.3172 38.481 57.1704V57.7678H37.8836C33.0311 57.7678 29.0828 53.8196 29.0828 48.9663V48.3696ZM72.7372 52.7992C65.1237 60.8261 56.3565 67.9426 51.8082 71.4706C50.8702 72.1984 49.6452 72.3605 48.5775 71.9615C49.9274 69.5898 51.1497 67.1152 52.2318 64.5498L53.4046 61.7689C55.961 55.7079 54.46 48.6079 49.6693 44.1007C46.9172 41.5121 43.3226 39.9918 39.548 39.8202C35.7715 39.6512 32.056 40.8378 29.0801 43.1669L28.8411 43.3543C28.3818 41.0987 27.2735 39.025 25.6084 37.3599L23.7352 35.4867C23.0485 34.8007 21.9362 34.8007 21.2488 35.4867C20.5629 36.1734 20.5629 37.2864 21.2488 37.9731L23.122 39.8462C23.9618 40.6867 24.5983 41.6748 25.0124 42.7515C22.5253 40.9751 19.5762 39.9589 16.535 39.8208C14.1942 35.8802 13.0042 32.4277 13.0042 29.5547C13.0042 17.9105 22.2204 8.43752 33.5488 8.43752C38.6005 8.43752 43.4571 10.3409 47.2234 13.7968C48.6633 15.1179 50.8359 15.1186 52.2758 13.7968C56.0421 10.3409 60.8987 8.43752 65.9511 8.43752C77.2788 8.43752 86.495 17.9105 86.495 29.5547C86.495 35.2725 81.7379 43.3104 72.7372 52.7992Z" fill="#4081A0"/>
<path d="M78.7206 29.6095H67.4754C66.7455 29.6095 66.0911 30.0606 65.8322 30.7425L61.8497 41.2105L55.3725 20.2182C55.1569 19.5213 54.5334 19.0289 53.8049 18.9822C53.0763 18.9349 52.3952 19.3441 52.0924 20.0081L47.7184 29.6095H36.9181C35.9479 29.6095 35.1603 30.3971 35.1603 31.3673C35.1603 32.3383 35.9479 33.1258 36.9181 33.1258H48.8493C49.538 33.1258 50.1636 32.7235 50.4492 32.0966L53.3757 25.6729L59.9964 47.1294C60.2175 47.8469 60.8698 48.3441 61.6196 48.3688C61.6389 48.3688 61.6581 48.3695 61.6766 48.3695C62.4045 48.3695 63.0595 47.9197 63.3198 47.2365L68.6873 33.1258H78.7206C79.6916 33.1258 80.4785 32.3383 80.4785 31.368C80.4785 30.3971 79.6916 29.6095 78.7206 29.6095Z" fill="#4081A0"/>
<path d="M28.7738 29.6094C28.3096 29.6094 27.8578 29.7975 27.5309 30.1244C27.202 30.4512 27.0153 30.9051 27.0153 31.3672C27.0153 31.83 27.202 32.2832 27.5309 32.61C27.8578 32.9369 28.311 33.1257 28.7738 33.1257C29.2359 33.1257 29.6898 32.9376 30.0166 32.61C30.3434 32.2832 30.5316 31.83 30.5316 31.3672C30.5316 30.9051 30.3434 30.4512 30.0166 30.1244C29.6898 29.7975 29.2359 29.6094 28.7738 29.6094Z" fill="#4081A0"/>
</g>
<defs>
<clipPath id="clip0_821_109">
<rect width="90" height="90" fill="white" transform="translate(0.0107422)"/>
</clipPath>
</defs>
</svg>
