<svg width="539" height="114" viewBox="0 0 539 114" fill="none" xmlns="http://www.w3.org/2000/svg">
<path d="M2.24 66.624C1.344 66.304 0.96 65.6 0.96 64.896C0.96 64.128 1.472 63.296 2.24 63.296C2.432 63.296 2.56 63.36 2.752 63.424C2.944 63.488 3.136 63.552 3.328 63.552C3.584 63.552 3.84 63.488 4.16 63.36C12.096 60.544 20.224 58.304 28.544 56.896C29.44 56.704 29.952 56.32 30.4 55.552C38.08 42.56 47.168 30.528 56.896 19.008C60.352 14.912 71.68 2.56 77.76 1.536C78.08 1.47199 78.4 1.408 78.72 1.408C81.664 1.408 83.008 4.352 83.136 7.168V8C83.136 19.584 71.744 41.28 67.072 51.84C67.328 51.904 67.584 51.968 67.776 51.968C68.16 51.968 68.544 51.904 68.864 51.84C73.152 51.52 77.44 51.2 81.792 51.2H83.584C83.968 51.2 84.288 51.264 84.352 51.712C84.352 52.16 84.096 52.288 83.712 52.288C83.456 52.288 83.2 52.224 83.008 52.224C77.76 52.288 72.576 52.864 67.392 53.376C66.496 53.44 65.408 54.016 65.024 54.848C55.296 75.264 49.792 85.76 40.32 106.304C39.36 108.224 38.336 109.888 37.44 111.872C37.12 112.512 36.928 113.152 36.352 113.152C36.16 113.152 36.032 113.088 35.84 113.024C35.584 112.896 35.456 112.64 35.456 112.32C35.456 111.744 35.84 110.976 36.032 110.656L40.128 103.744C49.152 84.224 54.144 74.368 63.296 54.912C63.424 54.656 63.552 54.4 63.552 54.08V53.952H63.296C59.776 53.952 37.12 57.92 33.6 58.624C32.704 58.816 32.064 59.136 31.552 59.968C28.736 64.384 22.848 74.56 20.608 79.552C20.416 80 20.352 80.256 20.352 80.448C20.352 81.152 21.056 81.024 21.056 81.984C21.056 82.176 21.056 82.496 20.928 82.88C20.416 84.8 19.264 86.336 17.856 87.68C17.344 88.128 16.768 88.32 16.128 88.32C14.848 88.32 13.568 87.36 13.568 85.824C13.568 85.504 13.632 85.184 13.76 84.8C15.168 80.832 24.192 65.664 26.752 61.44C27.008 61.056 27.328 60.672 27.456 60.096C27.264 60.032 27.136 59.968 27.008 59.968C26.752 59.968 26.432 60.096 26.176 60.16C19.584 61.632 13.056 63.488 6.656 65.728C5.568 66.112 4.032 66.688 2.88 66.688C2.624 66.688 2.432 66.688 2.24 66.624ZM36.992 50.368C35.968 52.096 34.944 53.76 34.048 55.872C44.032 54.528 53.568 53.312 63.616 52.288C64.32 52.224 64.704 51.968 64.96 51.264C69.248 42.112 77.248 25.984 79.744 16.512C80.192 14.912 81.152 11.008 81.152 7.936C81.152 5.504 80.512 3.52 78.592 3.52C77.824 3.52 76.928 3.84 75.712 4.48C70.784 7.296 63.68 14.656 59.968 18.816C51.264 28.544 43.648 39.104 36.992 50.368ZM77.954 83.968H77.506C74.114 83.648 73.218 80.832 73.218 77.952C73.218 71.68 77.762 59.264 79.938 53.568C84.29 42.496 88.962 32.896 97.474 23.424C98.37 22.464 99.266 21.568 100.29 20.8C101.378 19.968 102.466 19.648 103.49 19.648C104.194 19.648 104.898 19.84 105.41 20.224C106.306 20.864 106.626 21.888 106.626 23.104C106.626 26.688 103.81 31.808 102.722 33.6C98.818 40.448 89.666 53.12 81.346 58.88C80.642 59.328 79.874 59.968 79.618 60.544C77.762 65.216 75.714 70.784 75.074 77.568C75.074 77.824 75.01 78.08 75.01 78.4C75.01 80.384 75.714 82.432 77.954 82.496H78.146C85.634 82.496 101.826 63.36 104.066 61.44C104.45 61.12 104.642 61.056 105.09 60.8H105.154C105.346 60.8 105.474 60.928 105.474 61.12V61.184C105.026 61.696 105.154 61.568 104.834 61.888C100.354 65.728 85.442 83.968 77.954 83.968ZM81.474 56.576V56.704C81.474 56.832 81.602 56.96 81.73 56.96C81.858 56.96 81.986 56.896 82.05 56.832C90.05 50.88 96.514 41.728 101.506 32.896C102.21 31.616 105.154 26.24 105.154 23.424C105.154 22.656 104.962 22.08 104.386 21.824C104.258 21.76 104.13 21.76 103.938 21.76C103.298 21.76 102.466 22.144 101.506 23.104C100.546 24.128 99.65 25.152 98.754 26.24C91.97 34.368 87.17 44.544 82.562 54.144C82.306 54.656 81.666 56.064 81.474 56.576ZM106.481 73.472H106.097C102.769 73.472 101.425 70.976 101.425 68.416C101.425 67.392 101.617 66.368 102.001 65.472C103.857 60.928 107.121 57.664 111.729 55.744C112.369 55.424 112.945 55.36 113.457 55.36C114.801 55.36 115.505 56.32 115.505 57.408C115.505 58.048 115.313 58.688 114.929 59.2C114.289 60.096 113.649 61.056 112.753 61.632C110.961 62.848 108.977 63.936 107.057 65.024C106.481 65.344 105.841 65.536 105.201 65.536C104.817 65.536 104.433 65.472 103.985 65.344C103.217 66.496 102.897 67.648 102.897 68.672C102.897 70.72 104.369 72.128 106.993 72.128C107.697 72.128 108.401 72.064 109.169 71.872C115.441 70.336 125.681 64.768 130.609 60.992C130.737 60.864 130.865 60.8 130.993 60.8C131.057 60.8 131.121 60.864 131.121 60.992C131.121 61.056 131.057 61.184 130.865 61.376C126.257 65.408 113.073 73.152 106.481 73.472ZM112.241 57.856C109.169 58.816 107.121 60.992 105.073 63.552C107.825 62.72 111.921 59.456 112.241 57.856ZM120.77 83.648C120.45 83.84 120.194 83.968 120.002 83.968C119.426 83.968 119.106 83.328 119.106 82.752C119.106 82.304 119.362 81.792 119.938 81.728C121.09 81.6 121.538 80.768 122.178 80.128C125.25 76.992 128.194 73.92 131.267 70.784C131.459 70.656 131.715 70.528 131.907 70.4C131.779 69.952 131.715 69.696 131.651 69.44C130.819 66.624 130.434 63.808 130.434 60.864V60.096C130.434 58.688 129.538 58.048 129.538 56.704C129.538 56.192 129.666 55.616 130.05 54.784C130.242 54.336 130.947 53.888 131.651 53.888C132.291 53.888 132.867 54.272 132.867 55.424V60.416C132.867 62.976 132.995 65.408 133.827 68.416C138.947 64.064 142.723 60.416 148.547 56.576C151.107 54.848 153.923 53.44 156.611 51.904C156.995 51.648 157.507 51.584 158.019 51.456C158.083 51.584 158.083 51.712 158.083 51.84C158.083 52.288 157.699 52.416 157.443 52.544C148.675 56.832 141.699 63.424 134.723 69.952C134.659 70.016 134.595 70.144 134.467 70.336C135.811 74.112 138.115 76.544 142.019 76.544C156.419 76.544 178.179 60.864 179.843 60.864C179.907 60.864 179.907 60.864 179.907 60.928C179.907 61.12 179.779 61.12 179.075 61.632C171.203 66.816 152.579 77.824 141.763 77.824H141.507C137.795 77.824 135.043 76.16 133.123 73.024L132.419 72.192C129.346 75.072 123.074 82.112 120.77 83.648ZM223.867 47.296C222.395 47.936 219.835 48.832 219.067 50.368C219.003 50.496 219.003 50.624 219.003 50.688C219.003 51.136 219.579 51.328 220.027 51.456C221.243 51.776 222.523 51.776 223.803 51.968C224.443 52.032 224.827 52.48 224.827 52.992C224.827 53.312 224.635 53.696 224.123 53.952C223.739 54.144 222.203 54.912 221.755 55.04C216.507 57.088 212.923 58.944 209.659 63.232C208.571 64.704 207.867 66.432 207.867 67.904C207.867 69.696 208.891 71.104 211.259 71.104C211.963 71.104 212.731 70.976 213.627 70.72C218.043 69.568 221.883 67.264 225.915 65.152C227.067 64.512 227.643 64.32 227.963 64.32C228.219 64.32 228.347 64.384 228.475 64.512C228.539 64.576 228.539 64.64 228.539 64.704C228.539 65.152 227.323 65.984 227.131 66.176C224.443 67.904 218.811 70.4 215.867 71.424C215.483 71.616 215.163 71.808 214.971 72.192C213.307 75.84 211.643 79.488 210.363 83.264L209.467 86.08C209.403 86.272 209.275 86.336 209.147 86.336C209.083 86.336 208.955 86.272 208.891 86.208C208.635 86.016 208.507 85.632 208.507 85.312V85.184C209.211 81.792 211.451 76.096 212.923 72.832V72.64C212.923 72.512 212.859 72.384 212.667 72.384H212.475C212.347 72.384 212.155 72.32 212.027 72.32C211.515 72.32 211.003 72.448 210.363 72.448C209.915 72.448 209.403 72.384 208.827 72.192C207.035 71.552 206.011 70.016 206.011 68.032V67.52C206.267 64.576 208.059 61.824 210.171 59.84C213.243 57.024 217.211 55.168 221.115 53.568C221.691 53.312 221.627 53.376 222.075 53.056C220.923 52.864 219.067 53.056 218.107 52.608C217.019 52.096 216.571 51.264 216.571 50.432C216.571 49.536 217.083 48.576 217.787 47.936C219.323 46.592 221.563 45.44 223.483 44.672C224.251 44.416 224.699 43.968 224.955 43.136C225.595 41.408 228.155 37.12 229.435 35.712C229.563 35.52 229.819 35.392 230.011 35.392C230.267 35.392 230.523 35.584 230.523 36.032C230.523 36.352 230.331 36.864 230.011 37.568C229.435 38.784 227.259 42.944 226.875 43.968C227.003 44.032 227.131 44.032 227.259 44.032C227.579 44.032 227.963 43.968 228.411 43.968C228.795 43.968 229.243 44.032 229.691 44.224C230.267 44.48 230.523 45.312 230.523 46.08C230.523 46.784 230.331 47.488 229.883 47.872H229.755C228.219 47.872 229.435 46.4 228.155 46.272C228.027 46.272 227.835 46.208 227.707 46.208C227.067 46.208 226.427 46.464 225.787 46.592C225.403 46.72 225.467 47.616 225.019 47.616C224.955 47.616 224.763 47.552 224.571 47.36C224.443 47.232 224.315 47.232 224.187 47.232C224.059 47.232 223.995 47.232 223.867 47.296ZM335.817 17.216C336.585 15.232 337.161 13.184 337.481 11.008C337.545 10.624 337.545 10.24 337.545 9.856C337.545 6.464 335.369 3.904 331.785 3.392C330.825 3.264 329.865 3.2 328.84 3.2C320.521 3.2 312.073 8 305.545 12.672C286.409 26.304 264.649 56.128 264.649 81.088C264.649 83.264 264.777 85.44 265.161 87.552C266.377 94.976 270.793 99.456 277.897 101.504C280.265 102.08 282.697 102.4 285.065 102.4C307.977 102.4 332.937 77.44 347.785 61.504C348.233 61.056 348.553 60.864 348.809 60.864C348.937 60.864 349.065 60.928 349.065 61.12C349.065 61.376 348.809 61.888 348.233 62.464C346.697 64 345.353 65.6 343.945 67.2C329.801 82.624 306.441 103.808 285.001 103.808C281.737 103.808 278.537 103.36 275.401 102.272C268.617 99.84 264.713 95.232 263.369 88.064C262.921 85.568 262.665 83.072 262.665 80.512C262.665 55.232 284.105 26.688 299.465 14.4C306.953 8.064 318.281 0.575996 328.969 0.575996C330.441 0.575996 331.913 0.703995 333.321 1.02399C337.481 1.92 340.489 5.696 340.489 9.792C340.489 10.176 340.489 10.496 340.425 10.88C340.105 13.76 339.465 16.512 338.377 19.2C336.265 24.256 333.576 29.056 330.312 33.472C329.481 34.624 328.713 35.072 328.073 35.072C327.049 35.072 326.409 34.048 326.345 33.216V33.088C326.345 31.616 327.368 29.952 328.457 29.248C330.889 27.584 334.793 19.84 335.817 17.216ZM344.478 73.792C344.158 73.984 343.839 74.048 343.582 74.048C342.814 74.048 342.238 73.536 342.238 72.704C342.238 72.576 342.238 72.384 342.302 72.256C342.494 71.04 342.942 69.824 343.518 68.8C350.687 55.936 365.215 31.36 372.895 23.552C374.751 21.632 376.735 20.416 378.143 20.416C379.231 20.416 379.935 21.184 379.935 22.976C379.935 23.488 379.871 24.128 379.743 24.896C378.911 29.312 374.687 36.16 370.399 41.344C366.111 46.72 361.887 50.56 355.935 54.144C355.295 54.528 354.655 55.168 354.271 55.808L350.239 62.848C350.303 62.912 350.367 63.04 350.431 63.104C352.223 61.632 355.103 59.136 357.023 58.048C357.855 57.536 358.687 57.344 359.391 57.344C360.991 57.344 362.015 58.56 362.079 60.8V62.016C362.079 63.872 362.015 65.664 361.887 67.52V68.352C361.887 69.504 362.015 70.592 362.399 71.616C363.039 73.216 363.679 74.24 365.407 74.24H365.535C372.255 74.176 383.711 64.896 388.062 61.184C388.383 60.864 388.575 60.8 388.767 60.8H388.959V60.864C388.959 61.12 388.703 61.632 388.383 61.888C383.967 65.664 373.727 74.88 366.047 75.584C365.599 75.648 365.151 75.648 364.703 75.648C362.591 75.648 361.119 74.88 360.287 72.704C359.775 71.424 359.519 70.144 359.519 68.736V68.288C359.583 67.392 359.775 64.384 359.775 62.08C359.775 60.8 359.711 59.776 359.519 59.392C358.367 59.712 357.599 60.288 356.895 60.8C349.343 65.856 347.166 72.512 344.478 73.792ZM356.703 51.648C356.575 51.904 356.447 52.224 356.447 52.416C356.447 52.48 356.447 52.544 356.575 52.544C356.639 52.544 356.767 52.48 356.959 52.416C362.271 49.216 366.047 45.056 369.695 40.64C373.663 35.776 377.055 29.76 378.527 24.896C378.719 24.192 378.847 23.616 378.847 23.296C378.847 22.784 378.655 22.592 378.399 22.592C377.503 22.592 375.647 24.448 374.815 25.28C368.287 31.744 359.903 45.888 356.703 51.648ZM390.169 73.472H389.785C386.456 73.472 385.112 70.976 385.112 68.416C385.112 67.392 385.304 66.368 385.688 65.472C387.544 60.928 390.809 57.664 395.417 55.744C396.057 55.424 396.633 55.36 397.145 55.36C398.489 55.36 399.193 56.32 399.193 57.408C399.193 58.048 399.001 58.688 398.617 59.2C397.977 60.096 397.337 61.056 396.441 61.632C394.649 62.848 392.665 63.936 390.745 65.024C390.169 65.344 389.529 65.536 388.889 65.536C388.505 65.536 388.12 65.472 387.672 65.344C386.904 66.496 386.584 67.648 386.584 68.672C386.584 70.72 388.056 72.128 390.681 72.128C391.385 72.128 392.089 72.064 392.857 71.872C399.129 70.336 409.369 64.768 414.297 60.992C414.425 60.864 414.553 60.8 414.681 60.8C414.745 60.8 414.809 60.864 414.809 60.992C414.809 61.056 414.745 61.184 414.553 61.376C409.945 65.408 396.76 73.152 390.169 73.472ZM395.929 57.856C392.857 58.816 390.809 60.992 388.761 63.552C391.513 62.72 395.609 59.456 395.929 57.856ZM411.754 81.6C411.562 81.024 411.498 80.384 411.498 79.68C411.498 74.24 417.386 67.008 418.09 64.384C418.09 64.256 418.154 64.128 418.154 64C418.154 62.272 414.506 62.4 412.906 61.312C412.586 60.992 412.394 60.48 412.394 59.84C412.394 58.688 412.97 57.216 414.058 55.936C414.442 55.552 414.954 55.36 415.466 55.36C416.554 55.36 417.642 56.128 417.642 57.344C417.642 57.92 417.45 58.56 416.81 59.264C419.05 60.032 421.226 60.8 421.226 63.232C421.226 63.616 421.226 64 421.098 64.448C420.714 66.496 412.906 74.88 412.906 80.384V80.768C413.034 82.176 413.738 83.264 415.274 83.648C415.53 83.712 415.85 83.776 416.17 83.776C423.658 83.776 441.898 64.32 446.89 61.504C447.338 61.248 447.786 61.056 448.234 60.8C448.362 60.928 448.426 61.056 448.49 61.12C448.234 61.376 447.978 61.696 447.658 61.824C439.85 66.688 423.978 84.608 415.914 84.608C415.594 84.608 415.338 84.608 415.082 84.544C412.97 84.16 412.202 83.008 411.754 81.6ZM448.515 73.728C448.131 73.792 447.747 73.856 447.427 73.856C445.379 73.856 444.163 72.512 444.163 70.272V70.144C444.227 65.984 447.363 60.992 450.115 58.176C451.011 57.28 451.651 56.96 452.163 56.96C452.803 56.96 453.123 57.472 453.123 58.048C453.123 58.24 453.123 58.432 453.059 58.56C452.931 59.008 452.483 59.392 452.163 59.84C450.563 62.272 448.835 64.704 447.299 67.2C446.787 68.096 446.275 69.44 446.275 70.592C446.275 71.744 446.723 72.576 447.939 72.576H448.323C452.419 72.128 463.043 66.496 466.563 64.256C468.227 63.168 469.891 61.952 471.555 60.8C471.619 60.736 471.747 60.736 471.811 60.736C471.875 60.736 472.003 60.736 472.003 60.864C472.003 60.928 471.875 61.12 471.491 61.376C465.219 65.92 456.323 72.064 448.515 73.728ZM455.683 54.016C455.427 54.08 455.235 54.144 455.043 54.144C454.211 54.144 453.763 53.504 453.763 52.8C453.763 51.968 454.403 51.072 455.811 51.072C456.259 51.072 456.707 51.136 457.219 51.328C457.795 51.52 458.115 51.84 458.115 52.16C458.115 52.8 457.347 53.504 455.683 54.016ZM472.393 90.304C470.729 90.944 469.257 91.264 467.977 91.264C464.969 91.264 463.177 89.536 463.177 86.784C463.177 85.248 463.753 83.328 464.969 81.28C469.385 73.728 478.473 68.608 486.217 65.856C485.705 64.64 472.905 65.984 471.689 61.696C471.625 61.44 471.561 61.12 471.561 60.864C471.561 55.616 482.697 47.168 487.177 47.168C487.369 47.168 487.561 47.232 487.689 47.232C489.033 47.424 490.633 48.64 491.017 49.92C491.081 50.048 491.081 50.176 491.081 50.368C491.081 51.328 490.313 52.928 489.289 52.928C488.713 52.928 488.137 52.544 487.561 51.392C487.369 50.944 486.921 50.752 486.281 50.752C482.761 50.752 473.801 57.152 473.801 60.608V60.736C473.929 62.272 477.129 62.784 480.329 63.104C483.593 63.36 486.857 63.424 487.881 65.216C492.169 63.68 502.665 61.44 507.209 60.864C507.529 60.8 507.785 60.8 508.041 60.8C508.489 60.8 508.745 60.864 508.745 60.992C508.745 61.12 508.489 61.248 507.785 61.376C503.817 62.016 492.809 64.448 488.777 66.176C488.649 66.24 488.649 66.304 488.649 66.432C488.649 66.816 489.225 67.84 489.225 69.696C489.225 70.72 489.033 72.064 488.393 73.728C485.641 80.704 479.369 87.552 472.393 90.304ZM465.929 81.728C464.713 83.776 464.201 85.44 464.201 86.72C464.201 88.832 465.609 89.92 467.785 89.92C468.809 89.92 470.089 89.664 471.433 89.152C478.473 86.528 485.385 78.528 487.497 71.296C487.689 70.72 487.753 70.08 487.753 69.504C487.753 68.672 487.561 67.84 487.049 67.008C480.265 69.184 469.705 75.264 465.929 81.728ZM507.104 68.288C506.912 68.352 506.784 68.352 506.592 68.352C505.824 68.352 504.992 67.776 504.992 66.88C504.992 66.688 505.056 66.496 505.12 66.304C505.376 65.536 505.632 64.832 505.952 64.064C506.976 61.952 508.448 60.096 510.24 58.496C511.264 57.6 512.608 57.152 513.824 57.152C515.296 57.152 516.704 57.792 517.344 58.88C517.408 58.944 517.408 58.944 517.472 58.944C517.728 58.944 518.048 58.56 518.368 58.496C518.432 58.496 518.56 58.432 518.624 58.432C519.136 58.432 519.392 59.008 519.392 59.584C519.392 59.776 519.392 59.968 519.328 60.096C518.88 61.504 516.128 66.176 516.128 68.8C516.128 69.824 516.576 70.528 517.792 70.528H517.856C526.56 70.528 537.76 61.248 538.72 60.864H538.784C538.848 60.864 538.848 60.864 538.848 60.928C538.848 60.928 538.848 60.992 538.784 61.056C534.752 65.152 523.936 71.36 518.24 71.616H517.856C515.36 71.616 514.528 70.08 514.528 68.224C514.528 66.496 515.168 64.512 515.872 63.104C513.632 64.576 509.28 67.584 507.104 68.288ZM508.896 64.128C508.832 64.192 508.576 64.768 508.576 65.088C508.576 65.28 508.64 65.344 508.704 65.344C508.768 65.344 508.896 65.28 509.024 65.216C511.648 63.616 513.12 62.72 515.36 60.544C514.976 59.904 514.464 59.648 513.952 59.648C513.696 59.648 513.376 59.712 513.056 59.904C511.648 60.608 509.6 62.848 508.896 64.128Z" fill="#4081A0"/>
</svg>
